G04 Layer_Color=16711935*
%FSLAX44Y44*%
%MOMM*%
G71*
G01*
G75*
%ADD105R,1.2400X0.9900*%
%ADD106R,0.9900X1.2400*%
%ADD114R,2.2032X0.8032*%
%ADD115O,2.2032X0.8032*%
%ADD117R,1.2032X1.2032*%
%ADD119R,1.2032X1.2032*%
%ADD123O,0.4032X0.5032*%
%ADD124R,2.7032X0.6032*%
%ADD131O,0.5032X0.4032*%
%ADD132R,1.4032X1.0032*%
%ADD133C,2.2032*%
%ADD134C,2.0032*%
%ADD135C,0.9032*%
%ADD136C,4.2032*%
D105*
X519650Y153350D02*
D03*
Y166050D02*
D03*
D106*
X225550Y180800D02*
D03*
D114*
X152500Y164450D02*
D03*
D115*
Y177150D02*
D03*
Y189850D02*
D03*
Y202550D02*
D03*
X206500Y164450D02*
D03*
Y177150D02*
D03*
Y189850D02*
D03*
Y202550D02*
D03*
D117*
X557760Y85620D02*
D03*
X539790D02*
D03*
X502110Y84500D02*
D03*
X484140D02*
D03*
X502110Y71500D02*
D03*
X484140D02*
D03*
X502110Y58500D02*
D03*
X484140D02*
D03*
X539610Y111000D02*
D03*
X521640D02*
D03*
X589610Y85500D02*
D03*
X571640D02*
D03*
X571540Y71650D02*
D03*
X589510D02*
D03*
X539790D02*
D03*
X557760D02*
D03*
X190360Y222000D02*
D03*
X172390D02*
D03*
X190610Y236000D02*
D03*
X172640D02*
D03*
X368630Y66940D02*
D03*
X386600D02*
D03*
X368630Y82180D02*
D03*
X386600D02*
D03*
X333070Y66940D02*
D03*
X351040D02*
D03*
X333070Y82180D02*
D03*
X351040D02*
D03*
D119*
X295500Y126110D02*
D03*
Y108140D02*
D03*
X273500Y126110D02*
D03*
Y108140D02*
D03*
X250500Y126110D02*
D03*
Y108140D02*
D03*
D123*
X516128Y153336D02*
D03*
X523596D02*
D03*
X516128Y166036D02*
D03*
X523596D02*
D03*
D124*
X585000Y113750D02*
D03*
Y121250D02*
D03*
Y128750D02*
D03*
Y136250D02*
D03*
Y143750D02*
D03*
Y151250D02*
D03*
Y158750D02*
D03*
Y166250D02*
D03*
Y173750D02*
D03*
Y181250D02*
D03*
Y188750D02*
D03*
Y196250D02*
D03*
D131*
X225564Y184746D02*
D03*
Y177278D02*
D03*
D132*
X36500Y106000D02*
D03*
Y204000D02*
D03*
D133*
X183500Y285000D02*
D03*
X416500D02*
D03*
D134*
X261900Y290000D02*
D03*
X287300D02*
D03*
X312700D02*
D03*
X338100D02*
D03*
D135*
X52580Y126100D02*
D03*
Y183900D02*
D03*
D136*
X30000Y280000D02*
D03*
X570000D02*
D03*
Y30000D02*
D03*
X30000D02*
D03*
M02*
