G04 Layer_Color=2752767*
%FSLAX44Y44*%
%MOMM*%
G71*
G01*
G75*
%ADD137C,0.0508*%
%ADD138C,0.0677*%
D137*
X34468Y103968D02*
Y108032D01*
X38532D01*
Y103968D01*
X34468D01*
Y201968D02*
Y206032D01*
X38532D01*
Y201968D01*
X34468D01*
X261900Y287968D02*
X259868Y292032D01*
X263932D01*
X261900Y287968D01*
X287300D02*
X285268Y292032D01*
X289332D01*
X287300Y287968D01*
X312700D02*
X310668Y292032D01*
X314732D01*
X312700Y287968D01*
X338100D02*
X336068Y292032D01*
X340132D01*
X338100Y287968D01*
X52580Y124068D02*
X53596Y125084D01*
X54612D01*
X53596Y126100D01*
X54612Y127116D01*
X53596D01*
X52580Y128132D01*
X51564Y127116D01*
X50548D01*
X51564Y126100D01*
X50548Y125084D01*
X51564D01*
X52580Y124068D01*
Y181868D02*
X53596Y182884D01*
X54612D01*
X53596Y183900D01*
X54612Y184916D01*
X53596D01*
X52580Y185932D01*
X51564Y184916D01*
X50548D01*
X51564Y183900D01*
X50548Y182884D01*
X51564D01*
X52580Y181868D01*
X27968Y277968D02*
X28984Y280000D01*
X27968Y282032D01*
X30000Y281016D01*
X32032Y282032D01*
X31016Y280000D01*
X32032Y277968D01*
X30000Y278984D01*
X27968Y277968D01*
X567968D02*
X568984Y280000D01*
X567968Y282032D01*
X570000Y281016D01*
X572032Y282032D01*
X571016Y280000D01*
X572032Y277968D01*
X570000Y278984D01*
X567968Y277968D01*
Y27968D02*
X568984Y30000D01*
X567968Y32032D01*
X570000Y31016D01*
X572032Y32032D01*
X571016Y30000D01*
X572032Y27968D01*
X570000Y28984D01*
X567968Y27968D01*
X27968D02*
X28984Y30000D01*
X27968Y32032D01*
X30000Y31016D01*
X32032Y32032D01*
X31016Y30000D01*
X32032Y27968D01*
X30000Y28984D01*
X27968Y27968D01*
X212484Y188984D02*
Y187968D01*
X214516D01*
Y188984D01*
X215532D01*
Y191016D01*
X214516D01*
Y192032D01*
X212484D01*
Y191016D01*
X211468D01*
Y188984D01*
X212484D01*
X337984Y35984D02*
Y34968D01*
X340016D01*
Y35984D01*
X341032D01*
Y38016D01*
X340016D01*
Y39032D01*
X337984D01*
Y38016D01*
X336968D01*
Y35984D01*
X337984D01*
X330984D02*
Y34968D01*
X333016D01*
Y35984D01*
X334032D01*
Y38016D01*
X333016D01*
Y39032D01*
X330984D01*
Y38016D01*
X329968D01*
Y35984D01*
X330984D01*
X564984Y113484D02*
Y112468D01*
X567016D01*
Y113484D01*
X568032D01*
Y115516D01*
X567016D01*
Y116532D01*
X564984D01*
Y115516D01*
X563968D01*
Y113484D01*
X564984D01*
X559984D02*
Y112468D01*
X562016D01*
Y113484D01*
X563032D01*
Y115516D01*
X562016D01*
Y116532D01*
X559984D01*
Y115516D01*
X558968D01*
Y113484D01*
X559984D01*
X559984Y118484D02*
Y117468D01*
X562016D01*
Y118484D01*
X563032D01*
Y120516D01*
X562016D01*
Y121532D01*
X559984D01*
Y120516D01*
X558968D01*
Y118484D01*
X559984D01*
X564984D02*
Y117468D01*
X567016D01*
Y118484D01*
X568032D01*
Y120516D01*
X567016D01*
Y121532D01*
X564984D01*
Y120516D01*
X563968D01*
Y118484D01*
X564984D01*
X247484Y183984D02*
Y182968D01*
X249516D01*
Y183984D01*
X250532D01*
Y186016D01*
X249516D01*
Y187032D01*
X247484D01*
Y186016D01*
X246468D01*
Y183984D01*
X247484D01*
Y190984D02*
Y189968D01*
X249516D01*
Y190984D01*
X250532D01*
Y193016D01*
X249516D01*
Y194032D01*
X247484D01*
Y193016D01*
X246468D01*
Y190984D01*
X247484D01*
Y197984D02*
Y196968D01*
X249516D01*
Y197984D01*
X250532D01*
Y200016D01*
X249516D01*
Y201032D01*
X247484D01*
Y200016D01*
X246468D01*
Y197984D01*
X247484D01*
Y232984D02*
Y231968D01*
X249516D01*
Y232984D01*
X250532D01*
Y235016D01*
X249516D01*
Y236032D01*
X247484D01*
Y235016D01*
X246468D01*
Y232984D01*
X247484D01*
Y225984D02*
Y224968D01*
X249516D01*
Y225984D01*
X250532D01*
Y228016D01*
X249516D01*
Y229032D01*
X247484D01*
Y228016D01*
X246468D01*
Y225984D01*
X247484D01*
Y218984D02*
Y217968D01*
X249516D01*
Y218984D01*
X250532D01*
Y221016D01*
X249516D01*
Y222032D01*
X247484D01*
Y221016D01*
X246468D01*
Y218984D01*
X247484D01*
Y211984D02*
Y210968D01*
X249516D01*
Y211984D01*
X250532D01*
Y214016D01*
X249516D01*
Y215032D01*
X247484D01*
Y214016D01*
X246468D01*
Y211984D01*
X247484D01*
Y204984D02*
Y203968D01*
X249516D01*
Y204984D01*
X250532D01*
Y207016D01*
X249516D01*
Y208032D01*
X247484D01*
Y207016D01*
X246468D01*
Y204984D01*
X247484D01*
Y176984D02*
Y175968D01*
X249516D01*
Y176984D01*
X250532D01*
Y179016D01*
X249516D01*
Y180032D01*
X247484D01*
Y179016D01*
X246468D01*
Y176984D01*
X247484D01*
Y169984D02*
Y168968D01*
X249516D01*
Y169984D01*
X250532D01*
Y172016D01*
X249516D01*
Y173032D01*
X247484D01*
Y172016D01*
X246468D01*
Y169984D01*
X247484D01*
Y162984D02*
Y161968D01*
X249516D01*
Y162984D01*
X250532D01*
Y165016D01*
X249516D01*
Y166032D01*
X247484D01*
Y165016D01*
X246468D01*
Y162984D01*
X247484D01*
Y155984D02*
Y154968D01*
X249516D01*
Y155984D01*
X250532D01*
Y158016D01*
X249516D01*
Y159032D01*
X247484D01*
Y158016D01*
X246468D01*
Y155984D01*
X247484D01*
Y120984D02*
Y119968D01*
X249516D01*
Y120984D01*
X250532D01*
Y123016D01*
X249516D01*
Y124032D01*
X247484D01*
Y123016D01*
X246468D01*
Y120984D01*
X247484D01*
Y127984D02*
Y126968D01*
X249516D01*
Y127984D01*
X250532D01*
Y130016D01*
X249516D01*
Y131032D01*
X247484D01*
Y130016D01*
X246468D01*
Y127984D01*
X247484D01*
Y134984D02*
Y133968D01*
X249516D01*
Y134984D01*
X250532D01*
Y137016D01*
X249516D01*
Y138032D01*
X247484D01*
Y137016D01*
X246468D01*
Y134984D01*
X247484D01*
Y148984D02*
Y147968D01*
X249516D01*
Y148984D01*
X250532D01*
Y151016D01*
X249516D01*
Y152032D01*
X247484D01*
Y151016D01*
X246468D01*
Y148984D01*
X247484D01*
X408484Y223484D02*
Y222468D01*
X410516D01*
Y223484D01*
X411532D01*
Y225516D01*
X410516D01*
Y226532D01*
X408484D01*
Y225516D01*
X407468D01*
Y223484D01*
X408484D01*
X403484D02*
Y222468D01*
X405516D01*
Y223484D01*
X406532D01*
Y225516D01*
X405516D01*
Y226532D01*
X403484D01*
Y225516D01*
X402468D01*
Y223484D01*
X403484D01*
X403484Y228484D02*
Y227468D01*
X405516D01*
Y228484D01*
X406532D01*
Y230516D01*
X405516D01*
Y231532D01*
X403484D01*
Y230516D01*
X402468D01*
Y228484D01*
X403484D01*
X408484D02*
Y227468D01*
X410516D01*
Y228484D01*
X411532D01*
Y230516D01*
X410516D01*
Y231532D01*
X408484D01*
Y230516D01*
X407468D01*
Y228484D01*
X408484D01*
X324484Y216984D02*
Y215968D01*
X326516D01*
Y216984D01*
X327532D01*
Y219016D01*
X326516D01*
Y220032D01*
X324484D01*
Y219016D01*
X323468D01*
Y216984D01*
X324484D01*
Y221984D02*
Y220968D01*
X326516D01*
Y221984D01*
X327532D01*
Y224016D01*
X326516D01*
Y225032D01*
X324484D01*
Y224016D01*
X323468D01*
Y221984D01*
X324484D01*
Y211984D02*
Y210968D01*
X326516D01*
Y211984D01*
X327532D01*
Y214016D01*
X326516D01*
Y215032D01*
X324484D01*
Y214016D01*
X323468D01*
Y211984D01*
X324484D01*
Y226984D02*
Y225968D01*
X326516D01*
Y226984D01*
X327532D01*
Y229016D01*
X326516D01*
Y230032D01*
X324484D01*
Y229016D01*
X323468D01*
Y226984D01*
X324484D01*
X110484Y110984D02*
Y109968D01*
X112516D01*
Y110984D01*
X113532D01*
Y113016D01*
X112516D01*
Y114032D01*
X110484D01*
Y113016D01*
X109468D01*
Y110984D01*
X110484D01*
X115484D02*
Y109968D01*
X117516D01*
Y110984D01*
X118532D01*
Y113016D01*
X117516D01*
Y114032D01*
X115484D01*
Y113016D01*
X114468D01*
Y110984D01*
X115484D01*
X377484Y154484D02*
Y153468D01*
X379516D01*
Y154484D01*
X380532D01*
Y156516D01*
X379516D01*
Y157532D01*
X377484D01*
Y156516D01*
X376468D01*
Y154484D01*
X377484D01*
Y161484D02*
Y160468D01*
X379516D01*
Y161484D01*
X380532D01*
Y163516D01*
X379516D01*
Y164532D01*
X377484D01*
Y163516D01*
X376468D01*
Y161484D01*
X377484D01*
Y168484D02*
Y167468D01*
X379516D01*
Y168484D01*
X380532D01*
Y170516D01*
X379516D01*
Y171532D01*
X377484D01*
Y170516D01*
X376468D01*
Y168484D01*
X377484D01*
X125984Y9184D02*
Y8168D01*
X128016D01*
Y9184D01*
X129032D01*
Y11216D01*
X128016D01*
Y12232D01*
X125984D01*
Y11216D01*
X124968D01*
Y9184D01*
X125984D01*
X118984D02*
Y8168D01*
X121016D01*
Y9184D01*
X122032D01*
Y11216D01*
X121016D01*
Y12232D01*
X118984D01*
Y11216D01*
X117968D01*
Y9184D01*
X118984D01*
Y16184D02*
Y15168D01*
X121016D01*
Y16184D01*
X122032D01*
Y18216D01*
X121016D01*
Y19232D01*
X118984D01*
Y18216D01*
X117968D01*
Y16184D01*
X118984D01*
Y23184D02*
Y22168D01*
X121016D01*
Y23184D01*
X122032D01*
Y25216D01*
X121016D01*
Y26232D01*
X118984D01*
Y25216D01*
X117968D01*
Y23184D01*
X118984D01*
X132984D02*
Y22168D01*
X135016D01*
Y23184D01*
X136032D01*
Y25216D01*
X135016D01*
Y26232D01*
X132984D01*
Y25216D01*
X131968D01*
Y23184D01*
X132984D01*
Y16184D02*
Y15168D01*
X135016D01*
Y16184D01*
X136032D01*
Y18216D01*
X135016D01*
Y19232D01*
X132984D01*
Y18216D01*
X131968D01*
Y16184D01*
X132984D01*
Y9184D02*
Y8168D01*
X135016D01*
Y9184D01*
X136032D01*
Y11216D01*
X135016D01*
Y12232D01*
X132984D01*
Y11216D01*
X131968D01*
Y9184D01*
X132984D01*
X125984Y16184D02*
Y15168D01*
X128016D01*
Y16184D01*
X129032D01*
Y18216D01*
X128016D01*
Y19232D01*
X125984D01*
Y18216D01*
X124968D01*
Y16184D01*
X125984D01*
Y23184D02*
Y22168D01*
X128016D01*
Y23184D01*
X129032D01*
Y25216D01*
X128016D01*
Y26232D01*
X125984D01*
Y25216D01*
X124968D01*
Y23184D01*
X125984D01*
X459984Y122484D02*
Y121468D01*
X462016D01*
Y122484D01*
X463032D01*
Y124516D01*
X462016D01*
Y125532D01*
X459984D01*
Y124516D01*
X458968D01*
Y122484D01*
X459984D01*
X37484Y155484D02*
Y154468D01*
X39516D01*
Y155484D01*
X40532D01*
Y157516D01*
X39516D01*
Y158532D01*
X37484D01*
Y157516D01*
X36468D01*
Y155484D01*
X37484D01*
Y150484D02*
Y149468D01*
X39516D01*
Y150484D01*
X40532D01*
Y152516D01*
X39516D01*
Y153532D01*
X37484D01*
Y152516D01*
X36468D01*
Y150484D01*
X37484D01*
Y160484D02*
Y159468D01*
X39516D01*
Y160484D01*
X40532D01*
Y162516D01*
X39516D01*
Y163532D01*
X37484D01*
Y162516D01*
X36468D01*
Y160484D01*
X37484D01*
Y145484D02*
Y144468D01*
X39516D01*
Y145484D01*
X40532D01*
Y147516D01*
X39516D01*
Y148532D01*
X37484D01*
Y147516D01*
X36468D01*
Y145484D01*
X37484D01*
X128484Y201984D02*
Y200968D01*
X130516D01*
Y201984D01*
X131532D01*
Y204016D01*
X130516D01*
Y205032D01*
X128484D01*
Y204016D01*
X127468D01*
Y201984D01*
X128484D01*
Y216984D02*
Y215968D01*
X130516D01*
Y216984D01*
X131532D01*
Y219016D01*
X130516D01*
Y220032D01*
X128484D01*
Y219016D01*
X127468D01*
Y216984D01*
X128484D01*
Y206984D02*
Y205968D01*
X130516D01*
Y206984D01*
X131532D01*
Y209016D01*
X130516D01*
Y210032D01*
X128484D01*
Y209016D01*
X127468D01*
Y206984D01*
X128484D01*
Y211984D02*
Y210968D01*
X130516D01*
Y211984D01*
X131532D01*
Y214016D01*
X130516D01*
Y215032D01*
X128484D01*
Y214016D01*
X127468D01*
Y211984D01*
X128484D01*
X192484Y129984D02*
Y128968D01*
X194516D01*
Y129984D01*
X195532D01*
Y132016D01*
X194516D01*
Y133032D01*
X192484D01*
Y132016D01*
X191468D01*
Y129984D01*
X192484D01*
X187484D02*
Y128968D01*
X189516D01*
Y129984D01*
X190532D01*
Y132016D01*
X189516D01*
Y133032D01*
X187484D01*
Y132016D01*
X186468D01*
Y129984D01*
X187484D01*
X118484Y284984D02*
Y283968D01*
X120516D01*
Y284984D01*
X121532D01*
Y287016D01*
X120516D01*
Y288032D01*
X118484D01*
Y287016D01*
X117468D01*
Y284984D01*
X118484D01*
Y277984D02*
Y276968D01*
X120516D01*
Y277984D01*
X121532D01*
Y280016D01*
X120516D01*
Y281032D01*
X118484D01*
Y280016D01*
X117468D01*
Y277984D01*
X118484D01*
X125484Y270984D02*
Y269968D01*
X127516D01*
Y270984D01*
X128532D01*
Y273016D01*
X127516D01*
Y274032D01*
X125484D01*
Y273016D01*
X124468D01*
Y270984D01*
X125484D01*
Y277984D02*
Y276968D01*
X127516D01*
Y277984D01*
X128532D01*
Y280016D01*
X127516D01*
Y281032D01*
X125484D01*
Y280016D01*
X124468D01*
Y277984D01*
X125484D01*
Y284984D02*
Y283968D01*
X127516D01*
Y284984D01*
X128532D01*
Y287016D01*
X127516D01*
Y288032D01*
X125484D01*
Y287016D01*
X124468D01*
Y284984D01*
X125484D01*
X111484D02*
Y283968D01*
X113516D01*
Y284984D01*
X114532D01*
Y287016D01*
X113516D01*
Y288032D01*
X111484D01*
Y287016D01*
X110468D01*
Y284984D01*
X111484D01*
Y277984D02*
Y276968D01*
X113516D01*
Y277984D01*
X114532D01*
Y280016D01*
X113516D01*
Y281032D01*
X111484D01*
Y280016D01*
X110468D01*
Y277984D01*
X111484D01*
Y270984D02*
Y269968D01*
X113516D01*
Y270984D01*
X114532D01*
Y273016D01*
X113516D01*
Y274032D01*
X111484D01*
Y273016D01*
X110468D01*
Y270984D01*
X111484D01*
X118484D02*
Y269968D01*
X120516D01*
Y270984D01*
X121532D01*
Y273016D01*
X120516D01*
Y274032D01*
X118484D01*
Y273016D01*
X117468D01*
Y270984D01*
X118484D01*
X383984Y280484D02*
Y279468D01*
X386016D01*
Y280484D01*
X387032D01*
Y282516D01*
X386016D01*
Y283532D01*
X383984D01*
Y282516D01*
X382968D01*
Y280484D01*
X383984D01*
X206984Y210984D02*
Y209968D01*
X209016D01*
Y210984D01*
X210032D01*
Y213016D01*
X209016D01*
Y214032D01*
X206984D01*
Y213016D01*
X205968D01*
Y210984D01*
X206984D01*
X211484Y222984D02*
Y221968D01*
X213516D01*
Y222984D01*
X214532D01*
Y225016D01*
X213516D01*
Y226032D01*
X211484D01*
Y225016D01*
X210468D01*
Y222984D01*
X211484D01*
X369484Y120984D02*
Y119968D01*
X371516D01*
Y120984D01*
X372532D01*
Y123016D01*
X371516D01*
Y124032D01*
X369484D01*
Y123016D01*
X368468D01*
Y120984D01*
X369484D01*
X453484D02*
Y119968D01*
X455516D01*
Y120984D01*
X456532D01*
Y123016D01*
X455516D01*
Y124032D01*
X453484D01*
Y123016D01*
X452468D01*
Y120984D01*
X453484D01*
X446484D02*
Y119968D01*
X448516D01*
Y120984D01*
X449532D01*
Y123016D01*
X448516D01*
Y124032D01*
X446484D01*
Y123016D01*
X445468D01*
Y120984D01*
X446484D01*
X439484D02*
Y119968D01*
X441516D01*
Y120984D01*
X442532D01*
Y123016D01*
X441516D01*
Y124032D01*
X439484D01*
Y123016D01*
X438468D01*
Y120984D01*
X439484D01*
X432484D02*
Y119968D01*
X434516D01*
Y120984D01*
X435532D01*
Y123016D01*
X434516D01*
Y124032D01*
X432484D01*
Y123016D01*
X431468D01*
Y120984D01*
X432484D01*
X425484D02*
Y119968D01*
X427516D01*
Y120984D01*
X428532D01*
Y123016D01*
X427516D01*
Y124032D01*
X425484D01*
Y123016D01*
X424468D01*
Y120984D01*
X425484D01*
X418484D02*
Y119968D01*
X420516D01*
Y120984D01*
X421532D01*
Y123016D01*
X420516D01*
Y124032D01*
X418484D01*
Y123016D01*
X417468D01*
Y120984D01*
X418484D01*
X411484D02*
Y119968D01*
X413516D01*
Y120984D01*
X414532D01*
Y123016D01*
X413516D01*
Y124032D01*
X411484D01*
Y123016D01*
X410468D01*
Y120984D01*
X411484D01*
X404484D02*
Y119968D01*
X406516D01*
Y120984D01*
X407532D01*
Y123016D01*
X406516D01*
Y124032D01*
X404484D01*
Y123016D01*
X403468D01*
Y120984D01*
X404484D01*
X397484D02*
Y119968D01*
X399516D01*
Y120984D01*
X400532D01*
Y123016D01*
X399516D01*
Y124032D01*
X397484D01*
Y123016D01*
X396468D01*
Y120984D01*
X397484D01*
X390484D02*
Y119968D01*
X392516D01*
Y120984D01*
X393532D01*
Y123016D01*
X392516D01*
Y124032D01*
X390484D01*
Y123016D01*
X389468D01*
Y120984D01*
X390484D01*
X383484D02*
Y119968D01*
X385516D01*
Y120984D01*
X386532D01*
Y123016D01*
X385516D01*
Y124032D01*
X383484D01*
Y123016D01*
X382468D01*
Y120984D01*
X383484D01*
X376484D02*
Y119968D01*
X378516D01*
Y120984D01*
X379532D01*
Y123016D01*
X378516D01*
Y124032D01*
X376484D01*
Y123016D01*
X375468D01*
Y120984D01*
X376484D01*
X459984Y129484D02*
Y128468D01*
X462016D01*
Y129484D01*
X463032D01*
Y131516D01*
X462016D01*
Y132532D01*
X459984D01*
Y131516D01*
X458968D01*
Y129484D01*
X459984D01*
Y136484D02*
Y135468D01*
X462016D01*
Y136484D01*
X463032D01*
Y138516D01*
X462016D01*
Y139532D01*
X459984D01*
Y138516D01*
X458968D01*
Y136484D01*
X459984D01*
Y143484D02*
Y142468D01*
X462016D01*
Y143484D01*
X463032D01*
Y145516D01*
X462016D01*
Y146532D01*
X459984D01*
Y145516D01*
X458968D01*
Y143484D01*
X459984D01*
Y150484D02*
Y149468D01*
X462016D01*
Y150484D01*
X463032D01*
Y152516D01*
X462016D01*
Y153532D01*
X459984D01*
Y152516D01*
X458968D01*
Y150484D01*
X459984D01*
Y157484D02*
Y156468D01*
X462016D01*
Y157484D01*
X463032D01*
Y159516D01*
X462016D01*
Y160532D01*
X459984D01*
Y159516D01*
X458968D01*
Y157484D01*
X459984D01*
Y164484D02*
Y163468D01*
X462016D01*
Y164484D01*
X463032D01*
Y166516D01*
X462016D01*
Y167532D01*
X459984D01*
Y166516D01*
X458968D01*
Y164484D01*
X459984D01*
Y171484D02*
Y170468D01*
X462016D01*
Y171484D01*
X463032D01*
Y173516D01*
X462016D01*
Y174532D01*
X459984D01*
Y173516D01*
X458968D01*
Y171484D01*
X459984D01*
Y178484D02*
Y177468D01*
X462016D01*
Y178484D01*
X463032D01*
Y180516D01*
X462016D01*
Y181532D01*
X459984D01*
Y180516D01*
X458968D01*
Y178484D01*
X459984D01*
Y185484D02*
Y184468D01*
X462016D01*
Y185484D01*
X463032D01*
Y187516D01*
X462016D01*
Y188532D01*
X459984D01*
Y187516D01*
X458968D01*
Y185484D01*
X459984D01*
Y192484D02*
Y191468D01*
X462016D01*
Y192484D01*
X463032D01*
Y194516D01*
X462016D01*
Y195532D01*
X459984D01*
Y194516D01*
X458968D01*
Y192484D01*
X459984D01*
Y199484D02*
Y198468D01*
X462016D01*
Y199484D01*
X463032D01*
Y201516D01*
X462016D01*
Y202532D01*
X459984D01*
Y201516D01*
X458968D01*
Y199484D01*
X459984D01*
Y213484D02*
Y212468D01*
X462016D01*
Y213484D01*
X463032D01*
Y215516D01*
X462016D01*
Y216532D01*
X459984D01*
Y215516D01*
X458968D01*
Y213484D01*
X459984D01*
Y220484D02*
Y219468D01*
X462016D01*
Y220484D01*
X463032D01*
Y222516D01*
X462016D01*
Y223532D01*
X459984D01*
Y222516D01*
X458968D01*
Y220484D01*
X459984D01*
Y227484D02*
Y226468D01*
X462016D01*
Y227484D01*
X463032D01*
Y229516D01*
X462016D01*
Y230532D01*
X459984D01*
Y229516D01*
X458968D01*
Y227484D01*
X459984D01*
Y234484D02*
Y233468D01*
X462016D01*
Y234484D01*
X463032D01*
Y236516D01*
X462016D01*
Y237532D01*
X459984D01*
Y236516D01*
X458968D01*
Y234484D01*
X459984D01*
X425984Y21484D02*
Y20468D01*
X428016D01*
Y21484D01*
X429032D01*
Y23516D01*
X428016D01*
Y24532D01*
X425984D01*
Y23516D01*
X424968D01*
Y21484D01*
X425984D01*
X343925Y23984D02*
Y22968D01*
X345957D01*
Y23984D01*
X346973D01*
Y26016D01*
X345957D01*
Y27032D01*
X343925D01*
Y26016D01*
X342909D01*
Y23984D01*
X343925D01*
X355984Y22984D02*
Y21968D01*
X358016D01*
Y22984D01*
X359032D01*
Y25016D01*
X358016D01*
Y26032D01*
X355984D01*
Y25016D01*
X354968D01*
Y22984D01*
X355984D01*
X437484Y23984D02*
Y22968D01*
X439516D01*
Y23984D01*
X440532D01*
Y26016D01*
X439516D01*
Y27032D01*
X437484D01*
Y26016D01*
X436468D01*
Y23984D01*
X437484D01*
X443984Y23484D02*
Y22468D01*
X446016D01*
Y23484D01*
X447032D01*
Y25516D01*
X446016D01*
Y26532D01*
X443984D01*
Y25516D01*
X442968D01*
Y23484D01*
X443984D01*
X508553Y147984D02*
Y146968D01*
X510585D01*
Y147984D01*
X511601D01*
Y150016D01*
X510585D01*
Y151032D01*
X508553D01*
Y150016D01*
X507537D01*
Y147984D01*
X508553D01*
X214484Y270984D02*
Y269968D01*
X216516D01*
Y270984D01*
X217532D01*
Y273016D01*
X216516D01*
Y274032D01*
X214484D01*
Y273016D01*
X213468D01*
Y270984D01*
X214484D01*
X207484D02*
Y269968D01*
X209516D01*
Y270984D01*
X210532D01*
Y273016D01*
X209516D01*
Y274032D01*
X207484D01*
Y273016D01*
X206468D01*
Y270984D01*
X207484D01*
Y277984D02*
Y276968D01*
X209516D01*
Y277984D01*
X210532D01*
Y280016D01*
X209516D01*
Y281032D01*
X207484D01*
Y280016D01*
X206468D01*
Y277984D01*
X207484D01*
Y284984D02*
Y283968D01*
X209516D01*
Y284984D01*
X210532D01*
Y287016D01*
X209516D01*
Y288032D01*
X207484D01*
Y287016D01*
X206468D01*
Y284984D01*
X207484D01*
X221484D02*
Y283968D01*
X223516D01*
Y284984D01*
X224532D01*
Y287016D01*
X223516D01*
Y288032D01*
X221484D01*
Y287016D01*
X220468D01*
Y284984D01*
X221484D01*
Y277984D02*
Y276968D01*
X223516D01*
Y277984D01*
X224532D01*
Y280016D01*
X223516D01*
Y281032D01*
X221484D01*
Y280016D01*
X220468D01*
Y277984D01*
X221484D01*
Y270984D02*
Y269968D01*
X223516D01*
Y270984D01*
X224532D01*
Y273016D01*
X223516D01*
Y274032D01*
X221484D01*
Y273016D01*
X220468D01*
Y270984D01*
X221484D01*
X214484Y277984D02*
Y276968D01*
X216516D01*
Y277984D01*
X217532D01*
Y280016D01*
X216516D01*
Y281032D01*
X214484D01*
Y280016D01*
X213468D01*
Y277984D01*
X214484D01*
Y284984D02*
Y283968D01*
X216516D01*
Y284984D01*
X217532D01*
Y287016D01*
X216516D01*
Y288032D01*
X214484D01*
Y287016D01*
X213468D01*
Y284984D01*
X214484D01*
X491484Y20984D02*
Y19968D01*
X493516D01*
Y20984D01*
X494532D01*
Y23016D01*
X493516D01*
Y24032D01*
X491484D01*
Y23016D01*
X490468D01*
Y20984D01*
X491484D01*
X488984Y25484D02*
Y24468D01*
X491016D01*
Y25484D01*
X492032D01*
Y27516D01*
X491016D01*
Y28532D01*
X488984D01*
Y27516D01*
X487968D01*
Y25484D01*
X488984D01*
X501984Y200984D02*
Y199968D01*
X504016D01*
Y200984D01*
X505032D01*
Y203016D01*
X504016D01*
Y204032D01*
X501984D01*
Y203016D01*
X500968D01*
Y200984D01*
X501984D01*
X506984D02*
Y199968D01*
X509016D01*
Y200984D01*
X510032D01*
Y203016D01*
X509016D01*
Y204032D01*
X506984D01*
Y203016D01*
X505968D01*
Y200984D01*
X506984D01*
X501984Y195984D02*
Y194968D01*
X504016D01*
Y195984D01*
X505032D01*
Y198016D01*
X504016D01*
Y199032D01*
X501984D01*
Y198016D01*
X500968D01*
Y195984D01*
X501984D01*
X506984D02*
Y194968D01*
X509016D01*
Y195984D01*
X510032D01*
Y198016D01*
X509016D01*
Y199032D01*
X506984D01*
Y198016D01*
X505968D01*
Y195984D01*
X506984D01*
Y190984D02*
Y189968D01*
X509016D01*
Y190984D01*
X510032D01*
Y193016D01*
X509016D01*
Y194032D01*
X506984D01*
Y193016D01*
X505968D01*
Y190984D01*
X506984D01*
X501984D02*
Y189968D01*
X504016D01*
Y190984D01*
X505032D01*
Y193016D01*
X504016D01*
Y194032D01*
X501984D01*
Y193016D01*
X500968D01*
Y190984D01*
X501984D01*
X511984D02*
Y189968D01*
X514016D01*
Y190984D01*
X515032D01*
Y193016D01*
X514016D01*
Y194032D01*
X511984D01*
Y193016D01*
X510968D01*
Y190984D01*
X511984D01*
Y195984D02*
Y194968D01*
X514016D01*
Y195984D01*
X515032D01*
Y198016D01*
X514016D01*
Y199032D01*
X511984D01*
Y198016D01*
X510968D01*
Y195984D01*
X511984D01*
Y200984D02*
Y199968D01*
X514016D01*
Y200984D01*
X515032D01*
Y203016D01*
X514016D01*
Y204032D01*
X511984D01*
Y203016D01*
X510968D01*
Y200984D01*
X511984D01*
X483984Y119984D02*
Y118968D01*
X486016D01*
Y119984D01*
X487032D01*
Y122016D01*
X486016D01*
Y123032D01*
X483984D01*
Y122016D01*
X482968D01*
Y119984D01*
X483984D01*
Y134984D02*
Y133968D01*
X486016D01*
Y134984D01*
X487032D01*
Y137016D01*
X486016D01*
Y138032D01*
X483984D01*
Y137016D01*
X482968D01*
Y134984D01*
X483984D01*
Y124984D02*
Y123968D01*
X486016D01*
Y124984D01*
X487032D01*
Y127016D01*
X486016D01*
Y128032D01*
X483984D01*
Y127016D01*
X482968D01*
Y124984D01*
X483984D01*
Y129984D02*
Y128968D01*
X486016D01*
Y129984D01*
X487032D01*
Y132016D01*
X486016D01*
Y133032D01*
X483984D01*
Y132016D01*
X482968D01*
Y129984D01*
X483984D01*
X508984Y172984D02*
Y171968D01*
X511016D01*
Y172984D01*
X512032D01*
Y175016D01*
X511016D01*
Y176032D01*
X508984D01*
Y175016D01*
X507968D01*
Y172984D01*
X508984D01*
X501984Y136984D02*
Y135968D01*
X504016D01*
Y136984D01*
X505032D01*
Y139016D01*
X504016D01*
Y140032D01*
X501984D01*
Y139016D01*
X500968D01*
Y136984D01*
X501984D01*
X508984Y129984D02*
Y128968D01*
X511016D01*
Y129984D01*
X512032D01*
Y132016D01*
X511016D01*
Y133032D01*
X508984D01*
Y132016D01*
X507968D01*
Y129984D01*
X508984D01*
X501984D02*
Y128968D01*
X504016D01*
Y129984D01*
X505032D01*
Y132016D01*
X504016D01*
Y133032D01*
X501984D01*
Y132016D01*
X500968D01*
Y129984D01*
X501984D01*
X508984Y136984D02*
Y135968D01*
X511016D01*
Y136984D01*
X512032D01*
Y139016D01*
X511016D01*
Y140032D01*
X508984D01*
Y139016D01*
X507968D01*
Y136984D01*
X508984D01*
X317484Y70484D02*
Y69468D01*
X319516D01*
Y70484D01*
X320532D01*
Y72516D01*
X319516D01*
Y73532D01*
X317484D01*
Y72516D01*
X316468D01*
Y70484D01*
X317484D01*
Y63484D02*
Y62468D01*
X319516D01*
Y63484D01*
X320532D01*
Y65516D01*
X319516D01*
Y66532D01*
X317484D01*
Y65516D01*
X316468D01*
Y63484D01*
X317484D01*
Y77484D02*
Y76468D01*
X319516D01*
Y77484D01*
X320532D01*
Y79516D01*
X319516D01*
Y80532D01*
X317484D01*
Y79516D01*
X316468D01*
Y77484D01*
X317484D01*
X369484Y168484D02*
Y167468D01*
X371516D01*
Y168484D01*
X372532D01*
Y170516D01*
X371516D01*
Y171532D01*
X369484D01*
Y170516D01*
X368468D01*
Y168484D01*
X369484D01*
Y154484D02*
Y153468D01*
X371516D01*
Y154484D01*
X372532D01*
Y156516D01*
X371516D01*
Y157532D01*
X369484D01*
Y156516D01*
X368468D01*
Y154484D01*
X369484D01*
Y161484D02*
Y160468D01*
X371516D01*
Y161484D01*
X372532D01*
Y163516D01*
X371516D01*
Y164532D01*
X369484D01*
Y163516D01*
X368468D01*
Y161484D01*
X369484D01*
X557984Y206484D02*
Y205468D01*
X560016D01*
Y206484D01*
X561032D01*
Y208516D01*
X560016D01*
Y209532D01*
X557984D01*
Y208516D01*
X556968D01*
Y206484D01*
X557984D01*
X571984Y213484D02*
Y212468D01*
X574016D01*
Y213484D01*
X575032D01*
Y215516D01*
X574016D01*
Y216532D01*
X571984D01*
Y215516D01*
X570968D01*
Y213484D01*
X571984D01*
Y206484D02*
Y205468D01*
X574016D01*
Y206484D01*
X575032D01*
Y208516D01*
X574016D01*
Y209532D01*
X571984D01*
Y208516D01*
X570968D01*
Y206484D01*
X571984D01*
X564984Y213484D02*
Y212468D01*
X567016D01*
Y213484D01*
X568032D01*
Y215516D01*
X567016D01*
Y216532D01*
X564984D01*
Y215516D01*
X563968D01*
Y213484D01*
X564984D01*
Y206484D02*
Y205468D01*
X567016D01*
Y206484D01*
X568032D01*
Y208516D01*
X567016D01*
Y209532D01*
X564984D01*
Y208516D01*
X563968D01*
Y206484D01*
X564984D01*
X557984Y213484D02*
Y212468D01*
X560016D01*
Y213484D01*
X561032D01*
Y215516D01*
X560016D01*
Y216532D01*
X557984D01*
Y215516D01*
X556968D01*
Y213484D01*
X557984D01*
X580484Y103984D02*
Y102968D01*
X582516D01*
Y103984D01*
X583532D01*
Y106016D01*
X582516D01*
Y107032D01*
X580484D01*
Y106016D01*
X579468D01*
Y103984D01*
X580484D01*
X587484Y96984D02*
Y95968D01*
X589516D01*
Y96984D01*
X590532D01*
Y99016D01*
X589516D01*
Y100032D01*
X587484D01*
Y99016D01*
X586468D01*
Y96984D01*
X587484D01*
X580484D02*
Y95968D01*
X582516D01*
Y96984D01*
X583532D01*
Y99016D01*
X582516D01*
Y100032D01*
X580484D01*
Y99016D01*
X579468D01*
Y96984D01*
X580484D01*
X587484Y103984D02*
Y102968D01*
X589516D01*
Y103984D01*
X590532D01*
Y106016D01*
X589516D01*
Y107032D01*
X587484D01*
Y106016D01*
X586468D01*
Y103984D01*
X587484D01*
X455964Y90344D02*
Y89328D01*
X457996D01*
Y90344D01*
X459012D01*
Y92376D01*
X457996D01*
Y93392D01*
X455964D01*
Y92376D01*
X454948D01*
Y90344D01*
X455964D01*
X415984Y78484D02*
Y77468D01*
X418016D01*
Y78484D01*
X419032D01*
Y80516D01*
X418016D01*
Y81532D01*
X415984D01*
Y80516D01*
X414968D01*
Y78484D01*
X415984D01*
X434484Y61984D02*
Y60968D01*
X436516D01*
Y61984D01*
X437532D01*
Y64016D01*
X436516D01*
Y65032D01*
X434484D01*
Y64016D01*
X433468D01*
Y61984D01*
X434484D01*
X481984Y73984D02*
Y72968D01*
X484016D01*
Y73984D01*
X485032D01*
Y76016D01*
X484016D01*
Y77032D01*
X481984D01*
Y76016D01*
X480968D01*
Y73984D01*
X481984D01*
X538984Y47724D02*
Y46708D01*
X541016D01*
Y47724D01*
X542032D01*
Y49756D01*
X541016D01*
Y50772D01*
X538984D01*
Y49756D01*
X537968D01*
Y47724D01*
X538984D01*
X533984Y42484D02*
Y41468D01*
X536016D01*
Y42484D01*
X537032D01*
Y44516D01*
X536016D01*
Y45532D01*
X533984D01*
Y44516D01*
X532968D01*
Y42484D01*
X533984D01*
X541984Y21754D02*
Y20738D01*
X544016D01*
Y21754D01*
X545032D01*
Y23786D01*
X544016D01*
Y24802D01*
X541984D01*
Y23786D01*
X540968D01*
Y21754D01*
X541984D01*
X534984Y14754D02*
Y13738D01*
X537016D01*
Y14754D01*
X538032D01*
Y16786D01*
X537016D01*
Y17802D01*
X534984D01*
Y16786D01*
X533968D01*
Y14754D01*
X534984D01*
X541984D02*
Y13738D01*
X544016D01*
Y14754D01*
X545032D01*
Y16786D01*
X544016D01*
Y17802D01*
X541984D01*
Y16786D01*
X540968D01*
Y14754D01*
X541984D01*
X534984Y7754D02*
Y6738D01*
X537016D01*
Y7754D01*
X538032D01*
Y9786D01*
X537016D01*
Y10802D01*
X534984D01*
Y9786D01*
X533968D01*
Y7754D01*
X534984D01*
X541984D02*
Y6738D01*
X544016D01*
Y7754D01*
X545032D01*
Y9786D01*
X544016D01*
Y10802D01*
X541984D01*
Y9786D01*
X540968D01*
Y7754D01*
X541984D01*
X534984Y21754D02*
Y20738D01*
X537016D01*
Y21754D01*
X538032D01*
Y23786D01*
X537016D01*
Y24802D01*
X534984D01*
Y23786D01*
X533968D01*
Y21754D01*
X534984D01*
X491484Y31984D02*
Y30968D01*
X493516D01*
Y31984D01*
X494532D01*
Y34016D01*
X493516D01*
Y35032D01*
X491484D01*
Y34016D01*
X490468D01*
Y31984D01*
X491484D01*
Y38984D02*
Y37968D01*
X493516D01*
Y38984D01*
X494532D01*
Y41016D01*
X493516D01*
Y42032D01*
X491484D01*
Y41016D01*
X490468D01*
Y38984D01*
X491484D01*
X402984Y29484D02*
Y28468D01*
X405016D01*
Y29484D01*
X406032D01*
Y31516D01*
X405016D01*
Y32532D01*
X402984D01*
Y31516D01*
X401968D01*
Y29484D01*
X402984D01*
X305484Y13984D02*
Y12968D01*
X307516D01*
Y13984D01*
X308532D01*
Y16016D01*
X307516D01*
Y17032D01*
X305484D01*
Y16016D01*
X304468D01*
Y13984D01*
X305484D01*
X298484D02*
Y12968D01*
X300516D01*
Y13984D01*
X301532D01*
Y16016D01*
X300516D01*
Y17032D01*
X298484D01*
Y16016D01*
X297468D01*
Y13984D01*
X298484D01*
X211144Y61824D02*
Y60808D01*
X213176D01*
Y61824D01*
X214192D01*
Y63856D01*
X213176D01*
Y64872D01*
X211144D01*
Y63856D01*
X210128D01*
Y61824D01*
X211144D01*
X175984Y63484D02*
Y62468D01*
X178016D01*
Y63484D01*
X179032D01*
Y65516D01*
X178016D01*
Y66532D01*
X175984D01*
Y65516D01*
X174968D01*
Y63484D01*
X175984D01*
X168984Y56484D02*
Y55468D01*
X171016D01*
Y56484D01*
X172032D01*
Y58516D01*
X171016D01*
Y59532D01*
X168984D01*
Y58516D01*
X167968D01*
Y56484D01*
X168984D01*
X175984D02*
Y55468D01*
X178016D01*
Y56484D01*
X179032D01*
Y58516D01*
X178016D01*
Y59532D01*
X175984D01*
Y58516D01*
X174968D01*
Y56484D01*
X175984D01*
X168984Y63484D02*
Y62468D01*
X171016D01*
Y63484D01*
X172032D01*
Y65516D01*
X171016D01*
Y66532D01*
X168984D01*
Y65516D01*
X167968D01*
Y63484D01*
X168984D01*
X135984Y65984D02*
Y64968D01*
X138016D01*
Y65984D01*
X139032D01*
Y68016D01*
X138016D01*
Y69032D01*
X135984D01*
Y68016D01*
X134968D01*
Y65984D01*
X135984D01*
X216484Y9810D02*
Y8794D01*
X218516D01*
Y9810D01*
X219532D01*
Y11842D01*
X218516D01*
Y12858D01*
X216484D01*
Y11842D01*
X215468D01*
Y9810D01*
X216484D01*
X209484D02*
Y8794D01*
X211516D01*
Y9810D01*
X212532D01*
Y11842D01*
X211516D01*
Y12858D01*
X209484D01*
Y11842D01*
X208468D01*
Y9810D01*
X209484D01*
Y16810D02*
Y15794D01*
X211516D01*
Y16810D01*
X212532D01*
Y18842D01*
X211516D01*
Y19858D01*
X209484D01*
Y18842D01*
X208468D01*
Y16810D01*
X209484D01*
Y23810D02*
Y22794D01*
X211516D01*
Y23810D01*
X212532D01*
Y25842D01*
X211516D01*
Y26858D01*
X209484D01*
Y25842D01*
X208468D01*
Y23810D01*
X209484D01*
X223484D02*
Y22794D01*
X225516D01*
Y23810D01*
X226532D01*
Y25842D01*
X225516D01*
Y26858D01*
X223484D01*
Y25842D01*
X222468D01*
Y23810D01*
X223484D01*
Y16810D02*
Y15794D01*
X225516D01*
Y16810D01*
X226532D01*
Y18842D01*
X225516D01*
Y19858D01*
X223484D01*
Y18842D01*
X222468D01*
Y16810D01*
X223484D01*
Y9810D02*
Y8794D01*
X225516D01*
Y9810D01*
X226532D01*
Y11842D01*
X225516D01*
Y12858D01*
X223484D01*
Y11842D01*
X222468D01*
Y9810D01*
X223484D01*
X216484Y16810D02*
Y15794D01*
X218516D01*
Y16810D01*
X219532D01*
Y18842D01*
X218516D01*
Y19858D01*
X216484D01*
Y18842D01*
X215468D01*
Y16810D01*
X216484D01*
Y23810D02*
Y22794D01*
X218516D01*
Y23810D01*
X219532D01*
Y25842D01*
X218516D01*
Y26858D01*
X216484D01*
Y25842D01*
X215468D01*
Y23810D01*
X216484D01*
X172244Y174044D02*
Y173028D01*
X174276D01*
Y174044D01*
X175292D01*
Y176076D01*
X174276D01*
Y177092D01*
X172244D01*
Y176076D01*
X171228D01*
Y174044D01*
X172244D01*
X179244D02*
Y173028D01*
X181276D01*
Y174044D01*
X182292D01*
Y176076D01*
X181276D01*
Y177092D01*
X179244D01*
Y176076D01*
X178228D01*
Y174044D01*
X179244D01*
X172244Y167044D02*
Y166028D01*
X174276D01*
Y167044D01*
X175292D01*
Y169076D01*
X174276D01*
Y170092D01*
X172244D01*
Y169076D01*
X171228D01*
Y167044D01*
X172244D01*
X179244D02*
Y166028D01*
X181276D01*
Y167044D01*
X182292D01*
Y169076D01*
X181276D01*
Y170092D01*
X179244D01*
Y169076D01*
X178228D01*
Y167044D01*
X179244D01*
X194484Y146984D02*
Y145968D01*
X196516D01*
Y146984D01*
X197532D01*
Y149016D01*
X196516D01*
Y150032D01*
X194484D01*
Y149016D01*
X193468D01*
Y146984D01*
X194484D01*
X235984Y130984D02*
Y129968D01*
X238016D01*
Y130984D01*
X239032D01*
Y133016D01*
X238016D01*
Y134032D01*
X235984D01*
Y133016D01*
X234968D01*
Y130984D01*
X235984D01*
X562483Y156484D02*
Y155468D01*
X564515D01*
Y156484D01*
X565531D01*
Y158516D01*
X564515D01*
Y159532D01*
X562483D01*
Y158516D01*
X561467D01*
Y156484D01*
X562483D01*
X533983Y155984D02*
Y154968D01*
X536015D01*
Y155984D01*
X537031D01*
Y158016D01*
X536015D01*
Y159032D01*
X533983D01*
Y158016D01*
X532967D01*
Y155984D01*
X533983D01*
X562484Y151984D02*
Y150968D01*
X564516D01*
Y151984D01*
X565532D01*
Y154016D01*
X564516D01*
Y155032D01*
X562484D01*
Y154016D01*
X561468D01*
Y151984D01*
X562484D01*
X563983Y143484D02*
Y142468D01*
X566015D01*
Y143484D01*
X567031D01*
Y145516D01*
X566015D01*
Y146532D01*
X563983D01*
Y145516D01*
X562967D01*
Y143484D01*
X563983D01*
X47984Y151304D02*
Y150288D01*
X50016D01*
Y151304D01*
X51032D01*
Y153336D01*
X50016D01*
Y154352D01*
X47984D01*
Y153336D01*
X46968D01*
Y151304D01*
X47984D01*
X244594Y87224D02*
Y86208D01*
X246626D01*
Y87224D01*
X247642D01*
Y89256D01*
X246626D01*
Y90272D01*
X244594D01*
Y89256D01*
X243578D01*
Y87224D01*
X244594D01*
X500484Y48984D02*
Y47968D01*
X502516D01*
Y48984D01*
X503532D01*
Y51016D01*
X502516D01*
Y52032D01*
X500484D01*
Y51016D01*
X499468D01*
Y48984D01*
X500484D01*
X443984Y97484D02*
Y96468D01*
X446016D01*
Y97484D01*
X447032D01*
Y99516D01*
X446016D01*
Y100532D01*
X443984D01*
Y99516D01*
X442968D01*
Y97484D01*
X443984D01*
X293484Y85984D02*
Y84968D01*
X295516D01*
Y85984D01*
X296532D01*
Y88016D01*
X295516D01*
Y89032D01*
X293484D01*
Y88016D01*
X292468D01*
Y85984D01*
X293484D01*
X384984Y32984D02*
Y31968D01*
X387016D01*
Y32984D01*
X388032D01*
Y35016D01*
X387016D01*
Y36032D01*
X384984D01*
Y35016D01*
X383968D01*
Y32984D01*
X384984D01*
X385484Y89984D02*
Y88968D01*
X387516D01*
Y89984D01*
X388532D01*
Y92016D01*
X387516D01*
Y93032D01*
X385484D01*
Y92016D01*
X384468D01*
Y89984D01*
X385484D01*
X331984Y24984D02*
Y23968D01*
X334016D01*
Y24984D01*
X335032D01*
Y27016D01*
X334016D01*
Y28032D01*
X331984D01*
Y27016D01*
X330968D01*
Y24984D01*
X331984D01*
X396984Y47984D02*
Y46968D01*
X399016D01*
Y47984D01*
X400032D01*
Y50016D01*
X399016D01*
Y51032D01*
X396984D01*
Y50016D01*
X395968D01*
Y47984D01*
X396984D01*
X500484Y92984D02*
Y91968D01*
X502516D01*
Y92984D01*
X503532D01*
Y95016D01*
X502516D01*
Y96032D01*
X500484D01*
Y95016D01*
X499468D01*
Y92984D01*
X500484D01*
X521484Y80484D02*
Y79468D01*
X523516D01*
Y80484D01*
X524532D01*
Y82516D01*
X523516D01*
Y83532D01*
X521484D01*
Y82516D01*
X520468D01*
Y80484D01*
X521484D01*
X91984Y183484D02*
Y182468D01*
X94016D01*
Y183484D01*
X95032D01*
Y185516D01*
X94016D01*
Y186532D01*
X91984D01*
Y185516D01*
X90968D01*
Y183484D01*
X91984D01*
Y177984D02*
Y176968D01*
X94016D01*
Y177984D01*
X95032D01*
Y180016D01*
X94016D01*
Y181032D01*
X91984D01*
Y180016D01*
X90968D01*
Y177984D01*
X91984D01*
Y172484D02*
Y171468D01*
X94016D01*
Y172484D01*
X95032D01*
Y174516D01*
X94016D01*
Y175532D01*
X91984D01*
Y174516D01*
X90968D01*
Y172484D01*
X91984D01*
X414484Y205484D02*
Y204468D01*
X416516D01*
Y205484D01*
X417532D01*
Y207516D01*
X416516D01*
Y208532D01*
X414484D01*
Y207516D01*
X413468D01*
Y205484D01*
X414484D01*
X546984Y174484D02*
Y173468D01*
X549016D01*
Y174484D01*
X550032D01*
Y176516D01*
X549016D01*
Y177532D01*
X546984D01*
Y176516D01*
X545968D01*
Y174484D01*
X546984D01*
X540484D02*
Y173468D01*
X542516D01*
Y174484D01*
X543532D01*
Y176516D01*
X542516D01*
Y177532D01*
X540484D01*
Y176516D01*
X539468D01*
Y174484D01*
X540484D01*
X525874Y139874D02*
Y138858D01*
X527906D01*
Y139874D01*
X528922D01*
Y141906D01*
X527906D01*
Y142922D01*
X525874D01*
Y141906D01*
X524858D01*
Y139874D01*
X525874D01*
X553484Y174484D02*
Y173468D01*
X555516D01*
Y174484D01*
X556532D01*
Y176516D01*
X555516D01*
Y177532D01*
X553484D01*
Y176516D01*
X552468D01*
Y174484D01*
X553484D01*
Y180484D02*
Y179468D01*
X555516D01*
Y180484D01*
X556532D01*
Y182516D01*
X555516D01*
Y183532D01*
X553484D01*
Y182516D01*
X552468D01*
Y180484D01*
X553484D01*
X546984D02*
Y179468D01*
X549016D01*
Y180484D01*
X550032D01*
Y182516D01*
X549016D01*
Y183532D01*
X546984D01*
Y182516D01*
X545968D01*
Y180484D01*
X546984D01*
X540484D02*
Y179468D01*
X542516D01*
Y180484D01*
X543532D01*
Y182516D01*
X542516D01*
Y183532D01*
X540484D01*
Y182516D01*
X539468D01*
Y180484D01*
X540484D01*
X567984Y168234D02*
Y167218D01*
X570016D01*
Y168234D01*
X571032D01*
Y170266D01*
X570016D01*
Y171282D01*
X567984D01*
Y170266D01*
X566968D01*
Y168234D01*
X567984D01*
X540484Y127484D02*
Y126468D01*
X542516D01*
Y127484D01*
X543532D01*
Y129516D01*
X542516D01*
Y130532D01*
X540484D01*
Y129516D01*
X539468D01*
Y127484D01*
X540484D01*
Y133484D02*
Y132468D01*
X542516D01*
Y133484D01*
X543532D01*
Y135516D01*
X542516D01*
Y136532D01*
X540484D01*
Y135516D01*
X539468D01*
Y133484D01*
X540484D01*
X546984D02*
Y132468D01*
X549016D01*
Y133484D01*
X550032D01*
Y135516D01*
X549016D01*
Y136532D01*
X546984D01*
Y135516D01*
X545968D01*
Y133484D01*
X546984D01*
Y127484D02*
Y126468D01*
X549016D01*
Y127484D01*
X550032D01*
Y129516D01*
X549016D01*
Y130532D01*
X546984D01*
Y129516D01*
X545968D01*
Y127484D01*
X546984D01*
X553484D02*
Y126468D01*
X555516D01*
Y127484D01*
X556532D01*
Y129516D01*
X555516D01*
Y130532D01*
X553484D01*
Y129516D01*
X552468D01*
Y127484D01*
X553484D01*
Y133484D02*
Y132468D01*
X555516D01*
Y133484D01*
X556532D01*
Y135516D01*
X555516D01*
Y136532D01*
X553484D01*
Y135516D01*
X552468D01*
Y133484D01*
X553484D01*
X56134Y151304D02*
Y150288D01*
X58166D01*
Y151304D01*
X59182D01*
Y153336D01*
X58166D01*
Y154352D01*
X56134D01*
Y153336D01*
X55118D01*
Y151304D01*
X56134D01*
X191254Y46584D02*
Y45568D01*
X193286D01*
Y46584D01*
X194302D01*
Y48616D01*
X193286D01*
Y49632D01*
X191254D01*
Y48616D01*
X190238D01*
Y46584D01*
X191254D01*
X205224D02*
Y45568D01*
X207256D01*
Y46584D01*
X208272D01*
Y48616D01*
X207256D01*
Y49632D01*
X205224D01*
Y48616D01*
X204208D01*
Y46584D01*
X205224D01*
X158214Y156324D02*
Y155308D01*
X160246D01*
Y156324D01*
X161262D01*
Y158356D01*
X160246D01*
Y159372D01*
X158214D01*
Y158356D01*
X157198D01*
Y156324D01*
X158214D01*
X207764Y87224D02*
Y86208D01*
X209796D01*
Y87224D01*
X210812D01*
Y89256D01*
X209796D01*
Y90272D01*
X207764D01*
Y89256D01*
X206748D01*
Y87224D01*
X207764D01*
X434594Y172894D02*
Y171878D01*
X436626D01*
Y172894D01*
X437642D01*
Y174926D01*
X436626D01*
Y175942D01*
X434594D01*
Y174926D01*
X433578D01*
Y172894D01*
X434594D01*
X505714Y120824D02*
Y119808D01*
X507746D01*
Y120824D01*
X508762D01*
Y122856D01*
X507746D01*
Y123872D01*
X505714D01*
Y122856D01*
X504698D01*
Y120824D01*
X505714D01*
Y115744D02*
Y114728D01*
X507746D01*
Y115744D01*
X508762D01*
Y117776D01*
X507746D01*
Y118792D01*
X505714D01*
Y117776D01*
X504698D01*
Y115744D01*
X505714D01*
X86484Y124484D02*
Y123468D01*
X88516D01*
Y124484D01*
X89532D01*
Y126516D01*
X88516D01*
Y127532D01*
X86484D01*
Y126516D01*
X85468D01*
Y124484D01*
X86484D01*
Y129984D02*
Y128968D01*
X88516D01*
Y129984D01*
X89532D01*
Y132016D01*
X88516D01*
Y133032D01*
X86484D01*
Y132016D01*
X85468D01*
Y129984D01*
X86484D01*
Y135484D02*
Y134468D01*
X88516D01*
Y135484D01*
X89532D01*
Y137516D01*
X88516D01*
Y138532D01*
X86484D01*
Y137516D01*
X85468D01*
Y135484D01*
X86484D01*
X91984D02*
Y134468D01*
X94016D01*
Y135484D01*
X95032D01*
Y137516D01*
X94016D01*
Y138532D01*
X91984D01*
Y137516D01*
X90968D01*
Y135484D01*
X91984D01*
Y129984D02*
Y128968D01*
X94016D01*
Y129984D01*
X95032D01*
Y132016D01*
X94016D01*
Y133032D01*
X91984D01*
Y132016D01*
X90968D01*
Y129984D01*
X91984D01*
Y124484D02*
Y123468D01*
X94016D01*
Y124484D01*
X95032D01*
Y126516D01*
X94016D01*
Y127532D01*
X91984D01*
Y126516D01*
X90968D01*
Y124484D01*
X91984D01*
X86484Y172484D02*
Y171468D01*
X88516D01*
Y172484D01*
X89532D01*
Y174516D01*
X88516D01*
Y175532D01*
X86484D01*
Y174516D01*
X85468D01*
Y172484D01*
X86484D01*
Y177984D02*
Y176968D01*
X88516D01*
Y177984D01*
X89532D01*
Y180016D01*
X88516D01*
Y181032D01*
X86484D01*
Y180016D01*
X85468D01*
Y177984D01*
X86484D01*
Y183484D02*
Y182468D01*
X88516D01*
Y183484D01*
X89532D01*
Y185516D01*
X88516D01*
Y186532D01*
X86484D01*
Y185516D01*
X85468D01*
Y183484D01*
X86484D01*
X506984Y109484D02*
Y108468D01*
X509016D01*
Y109484D01*
X510032D01*
Y111516D01*
X509016D01*
Y112532D01*
X506984D01*
Y111516D01*
X505968D01*
Y109484D01*
X506984D01*
X286484Y219484D02*
Y218468D01*
X288516D01*
Y219484D01*
X289532D01*
Y221516D01*
X288516D01*
Y222532D01*
X286484D01*
Y221516D01*
X285468D01*
Y219484D01*
X286484D01*
X203484Y93984D02*
Y92968D01*
X205516D01*
Y93984D01*
X206532D01*
Y96016D01*
X205516D01*
Y97032D01*
X203484D01*
Y96016D01*
X202468D01*
Y93984D01*
X203484D01*
X326484Y177984D02*
Y176968D01*
X328516D01*
Y177984D01*
X329532D01*
Y180016D01*
X328516D01*
Y181032D01*
X326484D01*
Y180016D01*
X325468D01*
Y177984D01*
X326484D01*
X434984Y271484D02*
Y270468D01*
X437016D01*
Y271484D01*
X438032D01*
Y273516D01*
X437016D01*
Y274532D01*
X434984D01*
Y273516D01*
X433968D01*
Y271484D01*
X434984D01*
X441984Y278484D02*
Y277468D01*
X444016D01*
Y278484D01*
X445032D01*
Y280516D01*
X444016D01*
Y281532D01*
X441984D01*
Y280516D01*
X440968D01*
Y278484D01*
X441984D01*
X434984D02*
Y277468D01*
X437016D01*
Y278484D01*
X438032D01*
Y280516D01*
X437016D01*
Y281532D01*
X434984D01*
Y280516D01*
X433968D01*
Y278484D01*
X434984D01*
X441984Y271484D02*
Y270468D01*
X444016D01*
Y271484D01*
X445032D01*
Y273516D01*
X444016D01*
Y274532D01*
X441984D01*
Y273516D01*
X440968D01*
Y271484D01*
X441984D01*
X308984Y91484D02*
Y90468D01*
X311016D01*
Y91484D01*
X312032D01*
Y93516D01*
X311016D01*
Y94532D01*
X308984D01*
Y93516D01*
X307968D01*
Y91484D01*
X308984D01*
X29984Y145484D02*
Y144468D01*
X32016D01*
Y145484D01*
X33032D01*
Y147516D01*
X32016D01*
Y148532D01*
X29984D01*
Y147516D01*
X28968D01*
Y145484D01*
X29984D01*
Y160484D02*
Y159468D01*
X32016D01*
Y160484D01*
X33032D01*
Y162516D01*
X32016D01*
Y163532D01*
X29984D01*
Y162516D01*
X28968D01*
Y160484D01*
X29984D01*
Y150484D02*
Y149468D01*
X32016D01*
Y150484D01*
X33032D01*
Y152516D01*
X32016D01*
Y153532D01*
X29984D01*
Y152516D01*
X28968D01*
Y150484D01*
X29984D01*
Y155484D02*
Y154468D01*
X32016D01*
Y155484D01*
X33032D01*
Y157516D01*
X32016D01*
Y158532D01*
X29984D01*
Y157516D01*
X28968D01*
Y155484D01*
X29984D01*
X168484Y12984D02*
Y11968D01*
X170516D01*
Y12984D01*
X171532D01*
Y15016D01*
X170516D01*
Y16032D01*
X168484D01*
Y15016D01*
X167468D01*
Y12984D01*
X168484D01*
Y5984D02*
Y4968D01*
X170516D01*
Y5984D01*
X171532D01*
Y8016D01*
X170516D01*
Y9032D01*
X168484D01*
Y8016D01*
X167468D01*
Y5984D01*
X168484D01*
X175484D02*
Y4968D01*
X177516D01*
Y5984D01*
X178532D01*
Y8016D01*
X177516D01*
Y9032D01*
X175484D01*
Y8016D01*
X174468D01*
Y5984D01*
X175484D01*
Y12984D02*
Y11968D01*
X177516D01*
Y12984D01*
X178532D01*
Y15016D01*
X177516D01*
Y16032D01*
X175484D01*
Y15016D01*
X174468D01*
Y12984D01*
X175484D01*
X28984Y296484D02*
Y295468D01*
X31016D01*
Y296484D01*
X32032D01*
Y298516D01*
X31016D01*
Y299532D01*
X28984D01*
Y298516D01*
X27968D01*
Y296484D01*
X28984D01*
X16610Y291358D02*
Y290342D01*
X18642D01*
Y291358D01*
X19658D01*
Y293390D01*
X18642D01*
Y294406D01*
X16610D01*
Y293390D01*
X15594D01*
Y291358D01*
X16610D01*
X11484Y278984D02*
Y277968D01*
X13516D01*
Y278984D01*
X14532D01*
Y281016D01*
X13516D01*
Y282032D01*
X11484D01*
Y281016D01*
X10468D01*
Y278984D01*
X11484D01*
X16610Y266610D02*
Y265594D01*
X18642D01*
Y266610D01*
X19658D01*
Y268642D01*
X18642D01*
Y269658D01*
X16610D01*
Y268642D01*
X15594D01*
Y266610D01*
X16610D01*
X28984Y261484D02*
Y260468D01*
X31016D01*
Y261484D01*
X32032D01*
Y263516D01*
X31016D01*
Y264532D01*
X28984D01*
Y263516D01*
X27968D01*
Y261484D01*
X28984D01*
X41358Y266610D02*
Y265594D01*
X43390D01*
Y266610D01*
X44406D01*
Y268642D01*
X43390D01*
Y269658D01*
X41358D01*
Y268642D01*
X40342D01*
Y266610D01*
X41358D01*
X46484Y278984D02*
Y277968D01*
X48516D01*
Y278984D01*
X49532D01*
Y281016D01*
X48516D01*
Y282032D01*
X46484D01*
Y281016D01*
X45468D01*
Y278984D01*
X46484D01*
X41358Y291358D02*
Y290342D01*
X43390D01*
Y291358D01*
X44406D01*
Y293390D01*
X43390D01*
Y294406D01*
X41358D01*
Y293390D01*
X40342D01*
Y291358D01*
X41358D01*
X568984Y296484D02*
Y295468D01*
X571016D01*
Y296484D01*
X572032D01*
Y298516D01*
X571016D01*
Y299532D01*
X568984D01*
Y298516D01*
X567968D01*
Y296484D01*
X568984D01*
X556610Y291358D02*
Y290342D01*
X558642D01*
Y291358D01*
X559658D01*
Y293390D01*
X558642D01*
Y294406D01*
X556610D01*
Y293390D01*
X555594D01*
Y291358D01*
X556610D01*
X551484Y278984D02*
Y277968D01*
X553516D01*
Y278984D01*
X554532D01*
Y281016D01*
X553516D01*
Y282032D01*
X551484D01*
Y281016D01*
X550468D01*
Y278984D01*
X551484D01*
X556610Y266610D02*
Y265594D01*
X558642D01*
Y266610D01*
X559658D01*
Y268642D01*
X558642D01*
Y269658D01*
X556610D01*
Y268642D01*
X555594D01*
Y266610D01*
X556610D01*
X568984Y261484D02*
Y260468D01*
X571016D01*
Y261484D01*
X572032D01*
Y263516D01*
X571016D01*
Y264532D01*
X568984D01*
Y263516D01*
X567968D01*
Y261484D01*
X568984D01*
X581358Y266610D02*
Y265594D01*
X583390D01*
Y266610D01*
X584406D01*
Y268642D01*
X583390D01*
Y269658D01*
X581358D01*
Y268642D01*
X580342D01*
Y266610D01*
X581358D01*
X586484Y278984D02*
Y277968D01*
X588516D01*
Y278984D01*
X589532D01*
Y281016D01*
X588516D01*
Y282032D01*
X586484D01*
Y281016D01*
X585468D01*
Y278984D01*
X586484D01*
X581358Y291358D02*
Y290342D01*
X583390D01*
Y291358D01*
X584406D01*
Y293390D01*
X583390D01*
Y294406D01*
X581358D01*
Y293390D01*
X580342D01*
Y291358D01*
X581358D01*
X568984Y46484D02*
Y45468D01*
X571016D01*
Y46484D01*
X572032D01*
Y48516D01*
X571016D01*
Y49532D01*
X568984D01*
Y48516D01*
X567968D01*
Y46484D01*
X568984D01*
X556610Y41358D02*
Y40342D01*
X558642D01*
Y41358D01*
X559658D01*
Y43390D01*
X558642D01*
Y44406D01*
X556610D01*
Y43390D01*
X555594D01*
Y41358D01*
X556610D01*
X551484Y28984D02*
Y27968D01*
X553516D01*
Y28984D01*
X554532D01*
Y31016D01*
X553516D01*
Y32032D01*
X551484D01*
Y31016D01*
X550468D01*
Y28984D01*
X551484D01*
X556610Y16610D02*
Y15594D01*
X558642D01*
Y16610D01*
X559658D01*
Y18642D01*
X558642D01*
Y19658D01*
X556610D01*
Y18642D01*
X555594D01*
Y16610D01*
X556610D01*
X568984Y11484D02*
Y10468D01*
X571016D01*
Y11484D01*
X572032D01*
Y13516D01*
X571016D01*
Y14532D01*
X568984D01*
Y13516D01*
X567968D01*
Y11484D01*
X568984D01*
X581358Y16610D02*
Y15594D01*
X583390D01*
Y16610D01*
X584406D01*
Y18642D01*
X583390D01*
Y19658D01*
X581358D01*
Y18642D01*
X580342D01*
Y16610D01*
X581358D01*
X586484Y28984D02*
Y27968D01*
X588516D01*
Y28984D01*
X589532D01*
Y31016D01*
X588516D01*
Y32032D01*
X586484D01*
Y31016D01*
X585468D01*
Y28984D01*
X586484D01*
X581358Y41358D02*
Y40342D01*
X583390D01*
Y41358D01*
X584406D01*
Y43390D01*
X583390D01*
Y44406D01*
X581358D01*
Y43390D01*
X580342D01*
Y41358D01*
X581358D01*
X28984Y46484D02*
Y45468D01*
X31016D01*
Y46484D01*
X32032D01*
Y48516D01*
X31016D01*
Y49532D01*
X28984D01*
Y48516D01*
X27968D01*
Y46484D01*
X28984D01*
X16610Y41358D02*
Y40342D01*
X18642D01*
Y41358D01*
X19658D01*
Y43390D01*
X18642D01*
Y44406D01*
X16610D01*
Y43390D01*
X15594D01*
Y41358D01*
X16610D01*
X11484Y28984D02*
Y27968D01*
X13516D01*
Y28984D01*
X14532D01*
Y31016D01*
X13516D01*
Y32032D01*
X11484D01*
Y31016D01*
X10468D01*
Y28984D01*
X11484D01*
X16610Y16610D02*
Y15594D01*
X18642D01*
Y16610D01*
X19658D01*
Y18642D01*
X18642D01*
Y19658D01*
X16610D01*
Y18642D01*
X15594D01*
Y16610D01*
X16610D01*
X28984Y11484D02*
Y10468D01*
X31016D01*
Y11484D01*
X32032D01*
Y13516D01*
X31016D01*
Y14532D01*
X28984D01*
Y13516D01*
X27968D01*
Y11484D01*
X28984D01*
X41358Y16610D02*
Y15594D01*
X43390D01*
Y16610D01*
X44406D01*
Y18642D01*
X43390D01*
Y19658D01*
X41358D01*
Y18642D01*
X40342D01*
Y16610D01*
X41358D01*
X46484Y28984D02*
Y27968D01*
X48516D01*
Y28984D01*
X49532D01*
Y31016D01*
X48516D01*
Y32032D01*
X46484D01*
Y31016D01*
X45468D01*
Y28984D01*
X46484D01*
X41358Y41358D02*
Y40342D01*
X43390D01*
Y41358D01*
X44406D01*
Y43390D01*
X43390D01*
Y44406D01*
X41358D01*
Y43390D01*
X40342D01*
Y41358D01*
X41358D01*
D138*
X185532Y285000D02*
G03*
X185532Y285000I-2032J0D01*
G01*
X418532D02*
G03*
X418532Y285000I-2032J0D01*
G01*
M02*
