G04 Layer_Color=32896*
%FSLAX44Y44*%
%MOMM*%
G71*
G01*
G75*
%ADD36C,0.2000*%
%ADD38C,0.3000*%
%ADD102C,0.1000*%
D36*
X182675Y158100D02*
G03*
X176325Y158100I-3175J0D01*
G01*
X164768D02*
X176325D01*
X182675D02*
X194232D01*
Y208900D01*
X164768D02*
X194232D01*
X164768Y158100D02*
Y208900D01*
X162000Y150997D02*
Y143499D01*
X160501Y142000D01*
X157501D01*
X156002Y143499D01*
Y150997D01*
X147005D02*
X153003D01*
Y146498D01*
X150004Y147998D01*
X148504D01*
X147005Y146498D01*
Y143499D01*
X148504Y142000D01*
X151503D01*
X153003Y143499D01*
X236693Y200363D02*
X239692D01*
X238192D01*
Y192865D01*
X239692Y191366D01*
X241192D01*
X242691Y192865D01*
X233694Y191366D02*
X230695D01*
X232194D01*
Y200363D01*
X233694Y198863D01*
X226196D02*
X224697Y200363D01*
X221698D01*
X220198Y198863D01*
Y192865D01*
X221698Y191366D01*
X224697D01*
X226196Y192865D01*
Y198863D01*
X246000Y134000D02*
X254997D01*
Y138499D01*
X253498Y139998D01*
X250499D01*
X248999Y138499D01*
Y134000D01*
Y136999D02*
X246000Y139998D01*
X253498Y142997D02*
X254997Y144497D01*
Y147496D01*
X253498Y148995D01*
X251998D01*
X250499Y147496D01*
Y145996D01*
Y147496D01*
X248999Y148995D01*
X247500D01*
X246000Y147496D01*
Y144497D01*
X247500Y142997D01*
X246000Y157992D02*
Y151994D01*
X251998Y157992D01*
X253498D01*
X254997Y156493D01*
Y153494D01*
X253498Y151994D01*
X525002Y87498D02*
X526502Y88997D01*
X529501D01*
X531000Y87498D01*
Y81500D01*
X529501Y80000D01*
X526502D01*
X525002Y81500D01*
X516005Y88997D02*
X522003D01*
Y84499D01*
X519004Y85998D01*
X517504D01*
X516005Y84499D01*
Y81500D01*
X517504Y80000D01*
X520503D01*
X522003Y81500D01*
X470002Y88218D02*
X471502Y89717D01*
X474501D01*
X476000Y88218D01*
Y82219D01*
X474501Y80720D01*
X471502D01*
X470002Y82219D01*
X467003Y80720D02*
X464004D01*
X465503D01*
Y89717D01*
X467003Y88218D01*
X459505Y89717D02*
X453507D01*
Y88218D01*
X459505Y82219D01*
Y80720D01*
X469752Y74688D02*
X471251Y76187D01*
X474250D01*
X475750Y74688D01*
Y68689D01*
X474250Y67190D01*
X471251D01*
X469752Y68689D01*
X466753Y67190D02*
X463754D01*
X465253D01*
Y76187D01*
X466753Y74688D01*
X459255D02*
X457756Y76187D01*
X454757D01*
X453257Y74688D01*
Y73188D01*
X454757Y71688D01*
X453257Y70189D01*
Y68689D01*
X454757Y67190D01*
X457756D01*
X459255Y68689D01*
Y70189D01*
X457756Y71688D01*
X459255Y73188D01*
Y74688D01*
X457756Y71688D02*
X454757D01*
X469752Y61158D02*
X471251Y62657D01*
X474250D01*
X475750Y61158D01*
Y55160D01*
X474250Y53660D01*
X471251D01*
X469752Y55160D01*
X466753Y53660D02*
X463754D01*
X465253D01*
Y62657D01*
X466753Y61158D01*
X459255Y55160D02*
X457756Y53660D01*
X454757D01*
X453257Y55160D01*
Y61158D01*
X454757Y62657D01*
X457756D01*
X459255Y61158D01*
Y59658D01*
X457756Y58158D01*
X453257D01*
X504542Y154967D02*
X507541D01*
X506041D01*
Y147470D01*
X507541Y145970D01*
X509040D01*
X510540Y147470D01*
X501543Y153468D02*
X500043Y154967D01*
X497044D01*
X495545Y153468D01*
Y151968D01*
X497044Y150469D01*
X498544D01*
X497044D01*
X495545Y148969D01*
Y147470D01*
X497044Y145970D01*
X500043D01*
X501543Y147470D01*
X504502Y169497D02*
X507501D01*
X506002D01*
Y161999D01*
X507501Y160500D01*
X509001D01*
X510500Y161999D01*
X495505Y169497D02*
X501503D01*
Y164998D01*
X498504Y166498D01*
X497004D01*
X495505Y164998D01*
Y161999D01*
X497004Y160500D01*
X500003D01*
X501503Y161999D01*
X535500Y120000D02*
Y128997D01*
X531002D01*
X529502Y127498D01*
Y124499D01*
X531002Y122999D01*
X535500D01*
X532501D02*
X529502Y120000D01*
X520505Y128997D02*
X526503D01*
Y124499D01*
X523504Y125998D01*
X522004D01*
X520505Y124499D01*
Y121500D01*
X522004Y120000D01*
X525003D01*
X526503Y121500D01*
X594000Y94000D02*
Y102997D01*
X589501D01*
X588002Y101498D01*
Y98498D01*
X589501Y96999D01*
X594000D01*
X591001D02*
X588002Y94000D01*
X585003Y102997D02*
X579005D01*
Y101498D01*
X585003Y95499D01*
Y94000D01*
X594500Y52500D02*
Y61497D01*
X590001D01*
X588502Y59998D01*
Y56999D01*
X590001Y55499D01*
X594500D01*
X591501D02*
X588502Y52500D01*
X585503Y59998D02*
X584003Y61497D01*
X581004D01*
X579505Y59998D01*
Y58498D01*
X581004Y56999D01*
X579505Y55499D01*
Y54000D01*
X581004Y52500D01*
X584003D01*
X585503Y54000D01*
Y55499D01*
X584003Y56999D01*
X585503Y58498D01*
Y59998D01*
X584003Y56999D02*
X581004D01*
X553000Y52000D02*
Y60997D01*
X548502D01*
X547002Y59498D01*
Y56498D01*
X548502Y54999D01*
X553000D01*
X550001D02*
X547002Y52000D01*
X544003Y53499D02*
X542503Y52000D01*
X539504D01*
X538005Y53499D01*
Y59498D01*
X539504Y60997D01*
X542503D01*
X544003Y59498D01*
Y57998D01*
X542503Y56498D01*
X538005D01*
X290500Y134500D02*
X299497D01*
Y138999D01*
X297998Y140498D01*
X294998D01*
X293499Y138999D01*
Y134500D01*
Y137499D02*
X290500Y140498D01*
Y143497D02*
Y146496D01*
Y144997D01*
X299497D01*
X297998Y143497D01*
X290500Y155493D02*
X299497D01*
X294998Y150995D01*
Y156993D01*
X269000Y135000D02*
X277997D01*
Y139499D01*
X276498Y140998D01*
X273498D01*
X271999Y139499D01*
Y135000D01*
Y137999D02*
X269000Y140998D01*
Y143997D02*
Y146996D01*
Y145497D01*
X277997D01*
X276498Y143997D01*
X277997Y157493D02*
Y151495D01*
X273498D01*
X274998Y154494D01*
Y155993D01*
X273498Y157493D01*
X270499D01*
X269000Y155993D01*
Y152994D01*
X270499Y151495D01*
X163690Y215650D02*
Y224647D01*
X159191D01*
X157692Y223148D01*
Y220149D01*
X159191Y218649D01*
X163690D01*
X160691D02*
X157692Y215650D01*
X148695D02*
X154693D01*
X148695Y221648D01*
Y223148D01*
X150194Y224647D01*
X153193D01*
X154693Y223148D01*
X139698Y224647D02*
X142697Y223148D01*
X145696Y220149D01*
Y217150D01*
X144196Y215650D01*
X141197D01*
X139698Y217150D01*
Y218649D01*
X141197Y220149D01*
X145696D01*
X163940Y229650D02*
Y238647D01*
X159441D01*
X157942Y237148D01*
Y234149D01*
X159441Y232649D01*
X163940D01*
X160941D02*
X157942Y229650D01*
X148945D02*
X154943D01*
X148945Y235648D01*
Y237148D01*
X150444Y238647D01*
X153443D01*
X154943Y237148D01*
X145946Y238647D02*
X139948D01*
Y237148D01*
X145946Y231150D01*
Y229650D01*
X424500Y62000D02*
Y70997D01*
X420001D01*
X418502Y69497D01*
Y66498D01*
X420001Y64999D01*
X424500D01*
X421501D02*
X418502Y62000D01*
X409505D02*
X415503D01*
X409505Y67998D01*
Y69497D01*
X411004Y70997D01*
X414003D01*
X415503Y69497D01*
X406506D02*
X405006Y70997D01*
X402007D01*
X400508Y69497D01*
Y67998D01*
X402007Y66498D01*
X400508Y64999D01*
Y63499D01*
X402007Y62000D01*
X405006D01*
X406506Y63499D01*
Y64999D01*
X405006Y66498D01*
X406506Y67998D01*
Y69497D01*
X405006Y66498D02*
X402007D01*
X424500Y77500D02*
Y86497D01*
X420001D01*
X418502Y84998D01*
Y81999D01*
X420001Y80499D01*
X424500D01*
X421501D02*
X418502Y77500D01*
X409505D02*
X415503D01*
X409505Y83498D01*
Y84998D01*
X411004Y86497D01*
X414003D01*
X415503Y84998D01*
X406506Y79000D02*
X405006Y77500D01*
X402007D01*
X400508Y79000D01*
Y84998D01*
X402007Y86497D01*
X405006D01*
X406506Y84998D01*
Y83498D01*
X405006Y81999D01*
X400508D01*
X323000Y62500D02*
Y71497D01*
X318501D01*
X317002Y69998D01*
Y66999D01*
X318501Y65499D01*
X323000D01*
X320001D02*
X317002Y62500D01*
X314003Y69998D02*
X312503Y71497D01*
X309504D01*
X308005Y69998D01*
Y68498D01*
X309504Y66999D01*
X311004D01*
X309504D01*
X308005Y65499D01*
Y64000D01*
X309504Y62500D01*
X312503D01*
X314003Y64000D01*
X305006Y69998D02*
X303506Y71497D01*
X300507D01*
X299008Y69998D01*
Y64000D01*
X300507Y62500D01*
X303506D01*
X305006Y64000D01*
Y69998D01*
X323000Y77000D02*
Y85997D01*
X318501D01*
X317002Y84497D01*
Y81498D01*
X318501Y79999D01*
X323000D01*
X320001D02*
X317002Y77000D01*
X314003Y84497D02*
X312503Y85997D01*
X309504D01*
X308005Y84497D01*
Y82998D01*
X309504Y81498D01*
X311004D01*
X309504D01*
X308005Y79999D01*
Y78499D01*
X309504Y77000D01*
X312503D01*
X314003Y78499D01*
X305006Y77000D02*
X302007D01*
X303506D01*
Y85997D01*
X305006Y84497D01*
D38*
X448000Y192985D02*
Y190652D01*
X443335Y185987D01*
X438670Y190652D01*
Y192985D01*
X443335Y185987D02*
Y178989D01*
X434005Y188319D02*
Y181322D01*
X431672Y178989D01*
X424674D01*
Y188319D01*
X420009Y185987D02*
X410679D01*
X406014Y178989D02*
Y188319D01*
X401348Y192985D01*
X396683Y188319D01*
Y178989D01*
Y185987D01*
X406014D01*
X392018Y178989D02*
Y188319D01*
X385020D01*
X382688Y185987D01*
Y178989D01*
X354697Y190652D02*
X357029Y192985D01*
X361695D01*
X364027Y190652D01*
Y181322D01*
X361695Y178989D01*
X357029D01*
X354697Y181322D01*
X350032Y192985D02*
Y178989D01*
Y185987D01*
X347699Y188319D01*
X343034D01*
X340701Y185987D01*
Y178989D01*
X329039D02*
X333704D01*
X336036Y181322D01*
Y185987D01*
X333704Y188319D01*
X329039D01*
X326706Y185987D01*
Y183654D01*
X336036D01*
X322041Y178989D02*
Y188319D01*
X315043D01*
X312710Y185987D01*
Y178989D01*
X438670Y154995D02*
X448000D01*
X438670Y164325D01*
Y166658D01*
X441002Y168990D01*
X445667D01*
X448000Y166658D01*
X434005D02*
X431672Y168990D01*
X427007D01*
X424674Y166658D01*
Y157327D01*
X427007Y154995D01*
X431672D01*
X434005Y157327D01*
Y166658D01*
X410679Y154995D02*
X420009D01*
X410679Y164325D01*
Y166658D01*
X413011Y168990D01*
X417677D01*
X420009Y166658D01*
X396683Y154995D02*
X406014D01*
X396683Y164325D01*
Y166658D01*
X399016Y168990D01*
X403681D01*
X406014Y166658D01*
X392018Y154995D02*
X382688Y164325D01*
X378023Y166658D02*
X375690Y168990D01*
X371025D01*
X368692Y166658D01*
Y157327D01*
X371025Y154995D01*
X375690D01*
X378023Y157327D01*
Y166658D01*
X364027D02*
X361695Y168990D01*
X357029D01*
X354697Y166658D01*
Y164325D01*
X357029Y161992D01*
X354697Y159660D01*
Y157327D01*
X357029Y154995D01*
X361695D01*
X364027Y157327D01*
Y159660D01*
X361695Y161992D01*
X364027Y164325D01*
Y166658D01*
X361695Y161992D02*
X357029D01*
X350032Y154995D02*
X340701Y164325D01*
X326706Y154995D02*
X336036D01*
X326706Y164325D01*
Y166658D01*
X329039Y168990D01*
X333704D01*
X336036Y166658D01*
X322041Y157327D02*
X319708Y154995D01*
X315043D01*
X312710Y157327D01*
Y166658D01*
X315043Y168990D01*
X319708D01*
X322041Y166658D01*
Y164325D01*
X319708Y161992D01*
X312710D01*
X448000Y144995D02*
Y135665D01*
X443335Y131000D01*
X438670Y135665D01*
Y144995D01*
X427007Y131000D02*
X431672D01*
X434005Y133333D01*
Y137998D01*
X431672Y140330D01*
X427007D01*
X424674Y137998D01*
Y135665D01*
X434005D01*
X420009Y140330D02*
Y131000D01*
Y135665D01*
X417677Y137998D01*
X415344Y140330D01*
X413011D01*
X392018Y131000D02*
X387353D01*
X389686D01*
Y144995D01*
X392018Y142663D01*
X380355Y131000D02*
Y133333D01*
X378023D01*
Y131000D01*
X380355D01*
X368692Y142663D02*
X366360Y144995D01*
X361695D01*
X359362Y142663D01*
Y133333D01*
X361695Y131000D01*
X366360D01*
X368692Y133333D01*
Y142663D01*
X525000Y260161D02*
Y248498D01*
X522667Y246165D01*
X518002D01*
X515670Y248498D01*
Y260161D01*
X501674Y257828D02*
X504007Y260161D01*
X508672D01*
X511004Y257828D01*
Y255495D01*
X508672Y253163D01*
X504007D01*
X501674Y250830D01*
Y248498D01*
X504007Y246165D01*
X508672D01*
X511004Y248498D01*
X497009Y260161D02*
Y246165D01*
X490011D01*
X487679Y248498D01*
Y250830D01*
X490011Y253163D01*
X497009D01*
X490011D01*
X487679Y255495D01*
Y257828D01*
X490011Y260161D01*
X497009D01*
X469018D02*
X459688D01*
X464353D01*
Y246165D01*
X455023Y255495D02*
Y248498D01*
X452690Y246165D01*
X445692D01*
Y243833D01*
X448025Y241500D01*
X450358D01*
X445692Y246165D02*
Y255495D01*
X441027Y241500D02*
Y255495D01*
X434029D01*
X431697Y253163D01*
Y248498D01*
X434029Y246165D01*
X441027D01*
X420034D02*
X424699D01*
X427032Y248498D01*
Y253163D01*
X424699Y255495D01*
X420034D01*
X417701Y253163D01*
Y250830D01*
X427032D01*
X413036Y253163D02*
X403706D01*
X389710Y257828D02*
X392043Y260161D01*
X396708D01*
X399041Y257828D01*
Y248498D01*
X396708Y246165D01*
X392043D01*
X389710Y248498D01*
X371050Y246165D02*
Y260161D01*
X364052D01*
X361720Y257828D01*
Y253163D01*
X364052Y250830D01*
X371050D01*
X354722Y246165D02*
X350057D01*
X347724Y248498D01*
Y253163D01*
X350057Y255495D01*
X354722D01*
X357054Y253163D01*
Y248498D01*
X354722Y246165D01*
X343059Y255495D02*
Y248498D01*
X340726Y246165D01*
X338394Y248498D01*
X336061Y246165D01*
X333728Y248498D01*
Y255495D01*
X322066Y246165D02*
X326731D01*
X329063Y248498D01*
Y253163D01*
X326731Y255495D01*
X322066D01*
X319733Y253163D01*
Y250830D01*
X329063D01*
X315068Y255495D02*
Y246165D01*
Y250830D01*
X312735Y253163D01*
X310403Y255495D01*
X308070D01*
X287077Y246165D02*
Y260161D01*
X282412Y255495D01*
X277747Y260161D01*
Y246165D01*
X266084D02*
X270749D01*
X273081Y248498D01*
Y253163D01*
X270749Y255495D01*
X266084D01*
X263751Y253163D01*
Y250830D01*
X273081D01*
X256753Y257828D02*
Y255495D01*
X259086D01*
X254421D01*
X256753D01*
Y248498D01*
X254421Y246165D01*
X240425D02*
X245091D01*
X247423Y248498D01*
Y253163D01*
X245091Y255495D01*
X240425D01*
X238093Y253163D01*
Y250830D01*
X247423D01*
X233428Y255495D02*
Y246165D01*
Y250830D01*
X231095Y253163D01*
X228762Y255495D01*
X226430D01*
D102*
X291500Y115350D02*
Y118900D01*
X299500Y115350D02*
Y118900D01*
X269500Y115350D02*
Y118900D01*
X277500Y115350D02*
Y118900D01*
X246500Y115350D02*
Y118900D01*
X254500Y115350D02*
Y118900D01*
X547000Y89620D02*
X550550D01*
X547000Y81620D02*
X550550D01*
X491350Y88500D02*
X494900D01*
X491350Y80500D02*
X494900D01*
X491350Y75500D02*
X494900D01*
X491350Y67500D02*
X494900D01*
X491350Y62500D02*
X494900D01*
X491350Y54500D02*
X494900D01*
X528850Y115000D02*
X532400D01*
X528850Y107000D02*
X532400D01*
X578850Y89500D02*
X582400D01*
X578850Y81500D02*
X582400D01*
X578750Y67650D02*
X582300D01*
X578750Y75650D02*
X582300D01*
X547000Y67650D02*
X550550D01*
X547000Y75650D02*
X550550D01*
X179600Y226000D02*
X183150D01*
X179600Y218000D02*
X183150D01*
X179850Y240000D02*
X183400D01*
X179850Y232000D02*
X183400D01*
X375840Y62940D02*
X379390D01*
X375840Y70940D02*
X379390D01*
X375840Y78180D02*
X379390D01*
X375840Y86180D02*
X379390D01*
X340280Y62940D02*
X343830D01*
X340280Y70940D02*
X343830D01*
X340280Y78180D02*
X343830D01*
X340280Y86180D02*
X343830D01*
M02*
