M48
;Layer_Color=9474304
;FILE_FORMAT=4:4
METRIC,LZ
;TYPE=PLATED
T1F00S00C0.3000
T2F00S00C0.7000
T3F00S00C0.8500
T4F00S00C3.0000
;TYPE=NON_PLATED
T6F00S00C2.0000
%
T01
X00017626Y00017626
X0003Y000125
X00042374Y00017626
X000475Y0003
X00042374Y00042374
X0003Y000475
X00017626Y00042374
X000125Y0003
X0012Y000242
Y000172
Y000102
X00127
X00134
Y000172
Y000242
X00127
Y000172
X001695Y00014
Y00007
X001765
Y00014
X002105Y00010826
X002175
X002245
Y00017826
Y00024826
X002175
X002105
Y00017826
X002175
X0020624Y000476
X0019227
X00177Y000575
Y000645
X0017
Y000575
X00137Y00067
X0021216Y0006284
X0020878Y0008824
X002045Y00095
X0024561Y0008824
X002945Y00087
X0031Y000925
X003185Y000785
Y000715
Y000645
X00332Y00037
X00339
X00333Y00026
X00344941Y00025
X00357Y00024
X00386Y00034
X00404Y000305
X00398Y00049
X00417Y000795
X004355Y00063
X004385Y00025
X00445Y000245
X00427Y000225
X00445Y000985
X0045698Y0009136
X003865Y00091
X003065Y00015
X002995
X004925Y00022
X0049Y000265
X004925Y00033
Y0004
X005015Y0005
X0054Y0004874
X00535Y000435
X00536Y0002277
X00543
Y0001577
X00536
Y0000877
X00543
X00557626Y00017626
X0057Y000125
X00582374Y00017626
X005875Y0003
X00582374Y00042374
X0057Y000475
X00557626Y00042374
X005525Y0003
X005225Y000815
X005015Y00094
X00483Y00075
X005815Y00098
X005885
Y00105
X005815
X00566Y001145
X00561
X00561Y001195
X00566
X005545Y001285
Y001345
X00548
Y001285
X005415
Y001345
X0052689Y0014089
X0051Y00138
X00503
Y00131
X0051
X0050673Y0012184
Y0011676
X00508Y001105
X00485Y00121
Y00126
Y00131
Y00136
X00509569Y00149
X0051Y00174
X00508Y00192
Y00197
Y00202
X00503
Y00197
Y00192
X00513
Y00197
Y00202
X005415Y001815
Y001755
X00548
Y001815
X005545
Y001755
X00569Y0016925
X00563499Y001575
X005635Y00153
X00564999Y001445
X00534999Y00157
X00559Y002075
X00566
X00573
Y002145
X00566
X00559
X00557626Y00267626
X0057Y002625
X00582374Y00267626
X005875Y0028
X00582374Y00292374
X0057Y002975
X00557626Y00292374
X005525Y0028
X00443Y002795
X00436
Y002725
X00443
X00461Y002355
Y002285
Y002215
Y002145
Y002005
Y001935
Y001865
Y001795
Y001725
Y001655
Y001585
Y001515
Y001445
Y001375
Y001305
Y001235
X004545Y00122
X004475
X004405
X004335
X004265
X004195
X004125
X004055
X003985
X003915
X003845
X003775
X003705
X003705Y001555
Y001625
Y001695
X003785
Y001625
Y001555
X003275Y00179
X003255Y00213
Y00218
Y00223
Y00228
X002875Y002205
X002485Y0022
Y00227
Y00234
Y00213
Y00206
Y00199
Y00192
Y00185
Y00178
Y00171
Y00164
Y00157
Y0015
Y00136
Y00129
Y00122
X00237Y00132
X001935Y00131
X001885
X001955Y00148
X0018026Y0016806
Y0017506
X0017326
Y0016806
X0015923Y0015734
X001295Y00203
Y00208
Y00213
Y00218
X001265Y00272
Y00279
X001195
Y00286
X001265
X001125
Y00279
Y00272
X001195
X002085
X002155
X002225
Y00279
Y00286
X002155
X002085
Y00279
X002155
X002125Y00224
X00208Y00212
X002135Y0019
X00093Y001845
Y00179
Y001735
X000875
Y00179
Y001845
Y001365
Y00131
Y001255
X00093
Y00131
Y001365
X001115Y00112
X001165
X0043561Y0017391
X004155Y002065
X004095Y002245
X004045
X004045Y002295
X004095
X00385Y002815
X000475Y0028
X00042374Y00292374
X0003Y002975
X00017626Y00292374
X000125Y0028
X00017626Y00267626
X0003Y002625
X00042374Y00267626
X000385Y001615
Y001565
Y001515
Y001465
X00031Y001465
Y001515
Y001565
Y001615
X00049Y0015232
X0005715
T02
X0005258Y001261
Y001839
T03
X002619Y0029
X002873
X003127
X003381
T04
X0003Y0003
X0057
Y0028
X0003
T06
X001835Y00285
X004165
M30
