G04 Layer_Color=8388736*
%FSLAX44Y44*%
%MOMM*%
G71*
G01*
G75*
%ADD105R,1.2400X0.9900*%
%ADD106R,0.9900X1.2400*%
%ADD107R,1.7032X1.4032*%
%ADD108O,1.7032X0.6032*%
%ADD109R,1.6532X0.6532*%
G04:AMPARAMS|DCode=110|XSize=1.1932mm|YSize=0.5432mm|CornerRadius=0.1441mm|HoleSize=0mm|Usage=FLASHONLY|Rotation=180.000|XOffset=0mm|YOffset=0mm|HoleType=Round|Shape=RoundedRectangle|*
%AMROUNDEDRECTD110*
21,1,1.1932,0.2550,0,0,180.0*
21,1,0.9050,0.5432,0,0,180.0*
1,1,0.2882,-0.4525,0.1275*
1,1,0.2882,0.4525,0.1275*
1,1,0.2882,0.4525,-0.1275*
1,1,0.2882,-0.4525,-0.1275*
%
%ADD110ROUNDEDRECTD110*%
G04:AMPARAMS|DCode=111|XSize=1.1932mm|YSize=0.5432mm|CornerRadius=0.1441mm|HoleSize=0mm|Usage=FLASHONLY|Rotation=90.000|XOffset=0mm|YOffset=0mm|HoleType=Round|Shape=RoundedRectangle|*
%AMROUNDEDRECTD111*
21,1,1.1932,0.2550,0,0,90.0*
21,1,0.9050,0.5432,0,0,90.0*
1,1,0.2882,0.1275,0.4525*
1,1,0.2882,0.1275,-0.4525*
1,1,0.2882,-0.1275,-0.4525*
1,1,0.2882,-0.1275,0.4525*
%
%ADD111ROUNDEDRECTD111*%
%ADD112R,2.3632X2.3632*%
%ADD113R,2.2032X3.2032*%
%ADD114R,2.2032X0.8032*%
%ADD115O,2.2032X0.8032*%
G04:AMPARAMS|DCode=116|XSize=3.2032mm|YSize=2.2032mm|CornerRadius=0mm|HoleSize=0mm|Usage=FLASHONLY|Rotation=180.000|XOffset=0mm|YOffset=0mm|HoleType=Round|Shape=Octagon|*
%AMOCTAGOND116*
4,1,8,-1.6016,0.5508,-1.6016,-0.5508,-1.0508,-1.1016,1.0508,-1.1016,1.6016,-0.5508,1.6016,0.5508,1.0508,1.1016,-1.0508,1.1016,-1.6016,0.5508,0.0*
%
%ADD116OCTAGOND116*%

%ADD117R,1.2032X1.2032*%
%ADD118R,1.4032X2.0032*%
%ADD119R,1.2032X1.2032*%
%ADD120O,1.0032X1.7032*%
%ADD121R,1.4032X1.8332*%
%ADD122R,3.2032X2.2032*%
%ADD123O,0.4032X0.5032*%
%ADD124R,2.7032X0.6032*%
%ADD125R,2.2032X2.4032*%
%ADD126R,2.2032X0.4532*%
%ADD127R,2.0032X2.4232*%
%ADD128R,1.2032X1.7272*%
%ADD129R,1.8332X1.4032*%
%ADD130C,1.0032*%
%ADD131O,0.5032X0.4032*%
%ADD132R,1.4032X1.0032*%
%ADD133C,2.2032*%
%ADD134C,2.0032*%
%ADD135C,0.9032*%
%ADD136C,4.2032*%
D105*
X148870Y40150D02*
D03*
X197570Y40220D02*
D03*
X519650Y140876D02*
D03*
Y153576D02*
D03*
D106*
X379450Y31800D02*
D03*
D107*
X413512Y60372D02*
D03*
Y79676D02*
D03*
X436118D02*
D03*
Y60372D02*
D03*
D108*
X521050Y17620D02*
D03*
Y24120D02*
D03*
Y30620D02*
D03*
Y37120D02*
D03*
Y43620D02*
D03*
Y50120D02*
D03*
Y56620D02*
D03*
Y63120D02*
D03*
Y69620D02*
D03*
Y76120D02*
D03*
X463550Y17620D02*
D03*
Y24120D02*
D03*
Y30620D02*
D03*
Y37120D02*
D03*
Y43620D02*
D03*
Y50120D02*
D03*
Y56620D02*
D03*
Y63120D02*
D03*
Y69620D02*
D03*
Y76120D02*
D03*
D109*
X195630Y71580D02*
D03*
Y65080D02*
D03*
Y58580D02*
D03*
Y78080D02*
D03*
X151630Y58580D02*
D03*
Y65080D02*
D03*
Y71580D02*
D03*
Y78080D02*
D03*
D110*
X195610Y161560D02*
D03*
Y168060D02*
D03*
Y174560D02*
D03*
Y181060D02*
D03*
X158410D02*
D03*
Y174560D02*
D03*
Y168060D02*
D03*
Y161560D02*
D03*
D111*
X167260Y152710D02*
D03*
X173760D02*
D03*
X180260D02*
D03*
X186760D02*
D03*
Y189910D02*
D03*
X180260D02*
D03*
X173760D02*
D03*
X167260D02*
D03*
D112*
X177010Y171310D02*
D03*
D113*
X374650Y162480D02*
D03*
D114*
X347650Y181530D02*
D03*
D115*
Y168830D02*
D03*
Y156130D02*
D03*
Y143430D02*
D03*
X401650Y181530D02*
D03*
Y168830D02*
D03*
Y156130D02*
D03*
Y143430D02*
D03*
D116*
X55500Y70000D02*
D03*
X514000Y283500D02*
D03*
X90000Y254000D02*
D03*
X470500Y283500D02*
D03*
D117*
X291390Y94500D02*
D03*
X309360D02*
D03*
X546000Y68000D02*
D03*
X563970D02*
D03*
X217450Y62840D02*
D03*
X235420D02*
D03*
X235670Y47600D02*
D03*
X217700D02*
D03*
X217450Y90780D02*
D03*
X235420D02*
D03*
X217450Y76810D02*
D03*
X235420D02*
D03*
X130040Y62840D02*
D03*
X112070D02*
D03*
X111820Y47600D02*
D03*
X129790D02*
D03*
X130040Y90780D02*
D03*
X112070D02*
D03*
X130040Y76810D02*
D03*
X112070D02*
D03*
X444720Y142160D02*
D03*
X426750D02*
D03*
X444720Y198040D02*
D03*
X426750D02*
D03*
X426500Y212010D02*
D03*
X444470D02*
D03*
X426500Y170100D02*
D03*
X444470D02*
D03*
X519110Y180500D02*
D03*
X501140D02*
D03*
X563970Y81000D02*
D03*
X546000D02*
D03*
X416590Y93900D02*
D03*
X434560D02*
D03*
X473680Y90090D02*
D03*
X455710D02*
D03*
X278860Y34500D02*
D03*
X260890D02*
D03*
X444470Y225980D02*
D03*
X426500D02*
D03*
X426750Y156130D02*
D03*
X444720D02*
D03*
X426750Y184070D02*
D03*
X444720D02*
D03*
X354300Y128190D02*
D03*
X336330D02*
D03*
X164360Y39980D02*
D03*
X182330D02*
D03*
X161800Y205600D02*
D03*
X179770D02*
D03*
D118*
X189220Y22200D02*
D03*
X157220D02*
D03*
X186660Y255130D02*
D03*
X154660D02*
D03*
D119*
X178280Y237570D02*
D03*
Y219600D02*
D03*
X163040Y237570D02*
D03*
Y219600D02*
D03*
X396240Y77360D02*
D03*
Y59390D02*
D03*
X218500Y148140D02*
D03*
Y166110D02*
D03*
X192250Y219600D02*
D03*
Y237570D02*
D03*
X149070Y219600D02*
D03*
Y237570D02*
D03*
X233000Y166110D02*
D03*
Y148140D02*
D03*
D120*
X294550Y78330D02*
D03*
X305550D02*
D03*
X285000Y15000D02*
D03*
X274000D02*
D03*
X426500D02*
D03*
X404500D02*
D03*
X415500D02*
D03*
X393500D02*
D03*
X322000D02*
D03*
X366000D02*
D03*
X344000D02*
D03*
X355000D02*
D03*
X333000D02*
D03*
D121*
X509610Y92630D02*
D03*
X488610D02*
D03*
X233000Y127500D02*
D03*
X212000D02*
D03*
X365500Y225500D02*
D03*
X386500D02*
D03*
D122*
X293500Y227000D02*
D03*
Y163000D02*
D03*
D123*
X152392Y40136D02*
D03*
X144924D02*
D03*
X194048Y40234D02*
D03*
X201516D02*
D03*
X516128Y140890D02*
D03*
X523596D02*
D03*
X516128Y153590D02*
D03*
X523596D02*
D03*
D124*
X585000Y151250D02*
D03*
Y158750D02*
D03*
Y196250D02*
D03*
Y188750D02*
D03*
Y181250D02*
D03*
Y173750D02*
D03*
Y166250D02*
D03*
Y143750D02*
D03*
Y136250D02*
D03*
Y128750D02*
D03*
Y121250D02*
D03*
Y113750D02*
D03*
D125*
X57404Y99374D02*
D03*
X15494D02*
D03*
X57658Y210626D02*
D03*
X15494D02*
D03*
D126*
X67580Y187500D02*
D03*
Y180000D02*
D03*
Y167500D02*
D03*
Y152500D02*
D03*
Y142500D02*
D03*
Y130000D02*
D03*
Y122500D02*
D03*
Y125000D02*
D03*
Y137500D02*
D03*
Y132500D02*
D03*
Y147500D02*
D03*
Y172500D02*
D03*
Y177500D02*
D03*
Y185000D02*
D03*
Y162500D02*
D03*
Y157500D02*
D03*
D127*
X308500Y132000D02*
D03*
X264500D02*
D03*
D128*
X401252Y202104D02*
D03*
X365252Y202246D02*
D03*
D129*
X345440Y201510D02*
D03*
Y222510D02*
D03*
X214000Y255500D02*
D03*
Y234500D02*
D03*
X234000D02*
D03*
Y255500D02*
D03*
D130*
X133500Y164500D02*
D03*
Y178000D02*
D03*
X177500Y129000D02*
D03*
X164000D02*
D03*
D131*
X379436Y35746D02*
D03*
Y28278D02*
D03*
D132*
X36500Y106000D02*
D03*
Y204000D02*
D03*
D133*
X183500Y285000D02*
D03*
X416500D02*
D03*
D134*
X261900Y290000D02*
D03*
X287300D02*
D03*
X312700D02*
D03*
X338100D02*
D03*
D135*
X52580Y126100D02*
D03*
Y183900D02*
D03*
D136*
X30000Y280000D02*
D03*
X570000D02*
D03*
Y30000D02*
D03*
X30000D02*
D03*
M02*
