G04 Layer_Color=128*
%FSLAX44Y44*%
%MOMM*%
G71*
G01*
G75*
%ADD17R,2.0000X0.6000*%
%ADD18O,2.0000X0.6000*%
%ADD20R,1.0000X1.0000*%
%ADD22R,1.0000X1.0000*%
%ADD26O,0.2000X0.3000*%
%ADD27R,2.5000X0.4000*%
%ADD34O,0.3000X0.2000*%
D17*
X152500Y164450D02*
D03*
D18*
Y177150D02*
D03*
Y189850D02*
D03*
Y202550D02*
D03*
X206500Y164450D02*
D03*
Y177150D02*
D03*
Y189850D02*
D03*
Y202550D02*
D03*
D20*
X557760Y85620D02*
D03*
X539790D02*
D03*
X502110Y84500D02*
D03*
X484140D02*
D03*
X502110Y71500D02*
D03*
X484140D02*
D03*
X502110Y58500D02*
D03*
X484140D02*
D03*
X539610Y111000D02*
D03*
X521640D02*
D03*
X589610Y85500D02*
D03*
X571640D02*
D03*
X571540Y71650D02*
D03*
X589510D02*
D03*
X539790D02*
D03*
X557760D02*
D03*
X190360Y222000D02*
D03*
X172390D02*
D03*
X190610Y236000D02*
D03*
X172640D02*
D03*
X368630Y66940D02*
D03*
X386600D02*
D03*
X368630Y82180D02*
D03*
X386600D02*
D03*
X333070Y66940D02*
D03*
X351040D02*
D03*
X333070Y82180D02*
D03*
X351040D02*
D03*
D22*
X295500Y126110D02*
D03*
Y108140D02*
D03*
X273500Y126110D02*
D03*
Y108140D02*
D03*
X250500Y126110D02*
D03*
Y108140D02*
D03*
D26*
X516128Y153336D02*
D03*
X523596D02*
D03*
X516128Y166036D02*
D03*
X523596D02*
D03*
D27*
X585000Y113750D02*
D03*
Y121250D02*
D03*
Y128750D02*
D03*
Y136250D02*
D03*
Y143750D02*
D03*
Y151250D02*
D03*
Y158750D02*
D03*
Y166250D02*
D03*
Y173750D02*
D03*
Y181250D02*
D03*
Y188750D02*
D03*
Y196250D02*
D03*
D34*
X225564Y184746D02*
D03*
Y177278D02*
D03*
M02*
