G04 Layer_Color=128*
%FSLAX44Y44*%
%MOMM*%
G71*
G01*
G75*
%ADD137C,0.0508*%
D137*
X33500Y106000D02*
X39500D01*
X36500Y103000D02*
Y109000D01*
X33500Y204000D02*
X39500D01*
X36500Y201000D02*
Y207000D01*
X173500Y285000D02*
X193500D01*
X183500Y275000D02*
Y295000D01*
X406500Y285000D02*
X426500D01*
X416500Y275000D02*
Y295000D01*
X257650Y290000D02*
X266150D01*
X261900Y285750D02*
Y294250D01*
X283050Y290000D02*
X291550D01*
X287300Y285750D02*
Y294250D01*
X308450Y290000D02*
X316950D01*
X312700Y285750D02*
Y294250D01*
X333850Y290000D02*
X342350D01*
X338100Y285750D02*
Y294250D01*
X49080Y126100D02*
X56080D01*
X52580Y122600D02*
Y129600D01*
X49080Y183900D02*
X56080D01*
X52580Y180400D02*
Y187400D01*
X15000Y280000D02*
X45000D01*
X30000Y265000D02*
Y295000D01*
X555000Y280000D02*
X585000D01*
X570000Y265000D02*
Y295000D01*
X555000Y30000D02*
X585000D01*
X570000Y15000D02*
Y45000D01*
X15000Y30000D02*
X45000D01*
X30000Y15000D02*
Y45000D01*
X212000Y190000D02*
X215000D01*
X213500Y188500D02*
Y191500D01*
X337500Y37000D02*
X340500D01*
X339000Y35500D02*
Y38500D01*
X330500Y37000D02*
X333500D01*
X332000Y35500D02*
Y38500D01*
X564500Y114500D02*
X567500D01*
X566000Y113000D02*
Y116000D01*
X559500Y114500D02*
X562500D01*
X561000Y113000D02*
Y116000D01*
X559500Y119500D02*
X562500D01*
X561000Y118000D02*
Y121000D01*
X564500Y119500D02*
X567500D01*
X566000Y118000D02*
Y121000D01*
X247000Y185000D02*
X250000D01*
X248500Y183500D02*
Y186500D01*
X247000Y192000D02*
X250000D01*
X248500Y190500D02*
Y193500D01*
X247000Y199000D02*
X250000D01*
X248500Y197500D02*
Y200500D01*
X247000Y234000D02*
X250000D01*
X248500Y232500D02*
Y235500D01*
X247000Y227000D02*
X250000D01*
X248500Y225500D02*
Y228500D01*
X247000Y220000D02*
X250000D01*
X248500Y218500D02*
Y221500D01*
X247000Y213000D02*
X250000D01*
X248500Y211500D02*
Y214500D01*
X247000Y206000D02*
X250000D01*
X248500Y204500D02*
Y207500D01*
X247000Y178000D02*
X250000D01*
X248500Y176500D02*
Y179500D01*
X247000Y171000D02*
X250000D01*
X248500Y169500D02*
Y172500D01*
X247000Y164000D02*
X250000D01*
X248500Y162500D02*
Y165500D01*
X247000Y157000D02*
X250000D01*
X248500Y155500D02*
Y158500D01*
X247000Y122000D02*
X250000D01*
X248500Y120500D02*
Y123500D01*
X247000Y129000D02*
X250000D01*
X248500Y127500D02*
Y130500D01*
X247000Y136000D02*
X250000D01*
X248500Y134500D02*
Y137500D01*
X247000Y150000D02*
X250000D01*
X248500Y148500D02*
Y151500D01*
X408000Y224500D02*
X411000D01*
X409500Y223000D02*
Y226000D01*
X403000Y224500D02*
X406000D01*
X404500Y223000D02*
Y226000D01*
X403000Y229500D02*
X406000D01*
X404500Y228000D02*
Y231000D01*
X408000Y229500D02*
X411000D01*
X409500Y228000D02*
Y231000D01*
X324000Y218000D02*
X327000D01*
X325500Y216500D02*
Y219500D01*
X324000Y223000D02*
X327000D01*
X325500Y221500D02*
Y224500D01*
X324000Y213000D02*
X327000D01*
X325500Y211500D02*
Y214500D01*
X324000Y228000D02*
X327000D01*
X325500Y226500D02*
Y229500D01*
X110000Y112000D02*
X113000D01*
X111500Y110500D02*
Y113500D01*
X115000Y112000D02*
X118000D01*
X116500Y110500D02*
Y113500D01*
X377000Y155500D02*
X380000D01*
X378500Y154000D02*
Y157000D01*
X377000Y162500D02*
X380000D01*
X378500Y161000D02*
Y164000D01*
X377000Y169500D02*
X380000D01*
X378500Y168000D02*
Y171000D01*
X125500Y10200D02*
X128500D01*
X127000Y8700D02*
Y11700D01*
X118500Y10200D02*
X121500D01*
X120000Y8700D02*
Y11700D01*
X118500Y17200D02*
X121500D01*
X120000Y15700D02*
Y18700D01*
X118500Y24200D02*
X121500D01*
X120000Y22700D02*
Y25700D01*
X132500Y24200D02*
X135500D01*
X134000Y22700D02*
Y25700D01*
X132500Y17200D02*
X135500D01*
X134000Y15700D02*
Y18700D01*
X132500Y10200D02*
X135500D01*
X134000Y8700D02*
Y11700D01*
X125500Y17200D02*
X128500D01*
X127000Y15700D02*
Y18700D01*
X125500Y24200D02*
X128500D01*
X127000Y22700D02*
Y25700D01*
X459500Y123500D02*
X462500D01*
X461000Y122000D02*
Y125000D01*
X37000Y156500D02*
X40000D01*
X38500Y155000D02*
Y158000D01*
X37000Y151500D02*
X40000D01*
X38500Y150000D02*
Y153000D01*
X37000Y161500D02*
X40000D01*
X38500Y160000D02*
Y163000D01*
X37000Y146500D02*
X40000D01*
X38500Y145000D02*
Y148000D01*
X128000Y203000D02*
X131000D01*
X129500Y201500D02*
Y204500D01*
X128000Y218000D02*
X131000D01*
X129500Y216500D02*
Y219500D01*
X128000Y208000D02*
X131000D01*
X129500Y206500D02*
Y209500D01*
X128000Y213000D02*
X131000D01*
X129500Y211500D02*
Y214500D01*
X192000Y131000D02*
X195000D01*
X193500Y129500D02*
Y132500D01*
X187000Y131000D02*
X190000D01*
X188500Y129500D02*
Y132500D01*
X118000Y286000D02*
X121000D01*
X119500Y284500D02*
Y287500D01*
X118000Y279000D02*
X121000D01*
X119500Y277500D02*
Y280500D01*
X125000Y272000D02*
X128000D01*
X126500Y270500D02*
Y273500D01*
X125000Y279000D02*
X128000D01*
X126500Y277500D02*
Y280500D01*
X125000Y286000D02*
X128000D01*
X126500Y284500D02*
Y287500D01*
X111000Y286000D02*
X114000D01*
X112500Y284500D02*
Y287500D01*
X111000Y279000D02*
X114000D01*
X112500Y277500D02*
Y280500D01*
X111000Y272000D02*
X114000D01*
X112500Y270500D02*
Y273500D01*
X118000Y272000D02*
X121000D01*
X119500Y270500D02*
Y273500D01*
X383500Y281500D02*
X386500D01*
X385000Y280000D02*
Y283000D01*
X206500Y212000D02*
X209500D01*
X208000Y210500D02*
Y213500D01*
X211000Y224000D02*
X214000D01*
X212500Y222500D02*
Y225500D01*
X369000Y122000D02*
X372000D01*
X370500Y120500D02*
Y123500D01*
X453000Y122000D02*
X456000D01*
X454500Y120500D02*
Y123500D01*
X446000Y122000D02*
X449000D01*
X447500Y120500D02*
Y123500D01*
X439000Y122000D02*
X442000D01*
X440500Y120500D02*
Y123500D01*
X432000Y122000D02*
X435000D01*
X433500Y120500D02*
Y123500D01*
X425000Y122000D02*
X428000D01*
X426500Y120500D02*
Y123500D01*
X418000Y122000D02*
X421000D01*
X419500Y120500D02*
Y123500D01*
X411000Y122000D02*
X414000D01*
X412500Y120500D02*
Y123500D01*
X404000Y122000D02*
X407000D01*
X405500Y120500D02*
Y123500D01*
X397000Y122000D02*
X400000D01*
X398500Y120500D02*
Y123500D01*
X390000Y122000D02*
X393000D01*
X391500Y120500D02*
Y123500D01*
X383000Y122000D02*
X386000D01*
X384500Y120500D02*
Y123500D01*
X376000Y122000D02*
X379000D01*
X377500Y120500D02*
Y123500D01*
X459500Y130500D02*
X462500D01*
X461000Y129000D02*
Y132000D01*
X459500Y137500D02*
X462500D01*
X461000Y136000D02*
Y139000D01*
X459500Y144500D02*
X462500D01*
X461000Y143000D02*
Y146000D01*
X459500Y151500D02*
X462500D01*
X461000Y150000D02*
Y153000D01*
X459500Y158500D02*
X462500D01*
X461000Y157000D02*
Y160000D01*
X459500Y165500D02*
X462500D01*
X461000Y164000D02*
Y167000D01*
X459500Y172500D02*
X462500D01*
X461000Y171000D02*
Y174000D01*
X459500Y179500D02*
X462500D01*
X461000Y178000D02*
Y181000D01*
X459500Y186500D02*
X462500D01*
X461000Y185000D02*
Y188000D01*
X459500Y193500D02*
X462500D01*
X461000Y192000D02*
Y195000D01*
X459500Y200500D02*
X462500D01*
X461000Y199000D02*
Y202000D01*
X459500Y214500D02*
X462500D01*
X461000Y213000D02*
Y216000D01*
X459500Y221500D02*
X462500D01*
X461000Y220000D02*
Y223000D01*
X459500Y228500D02*
X462500D01*
X461000Y227000D02*
Y230000D01*
X459500Y235500D02*
X462500D01*
X461000Y234000D02*
Y237000D01*
X425500Y22500D02*
X428500D01*
X427000Y21000D02*
Y24000D01*
X343441Y25000D02*
X346441D01*
X344941Y23500D02*
Y26500D01*
X355500Y24000D02*
X358500D01*
X357000Y22500D02*
Y25500D01*
X437000Y25000D02*
X440000D01*
X438500Y23500D02*
Y26500D01*
X443500Y24500D02*
X446500D01*
X445000Y23000D02*
Y26000D01*
X508069Y149000D02*
X511069D01*
X509569Y147500D02*
Y150500D01*
X214000Y272000D02*
X217000D01*
X215500Y270500D02*
Y273500D01*
X207000Y272000D02*
X210000D01*
X208500Y270500D02*
Y273500D01*
X207000Y279000D02*
X210000D01*
X208500Y277500D02*
Y280500D01*
X207000Y286000D02*
X210000D01*
X208500Y284500D02*
Y287500D01*
X221000Y286000D02*
X224000D01*
X222500Y284500D02*
Y287500D01*
X221000Y279000D02*
X224000D01*
X222500Y277500D02*
Y280500D01*
X221000Y272000D02*
X224000D01*
X222500Y270500D02*
Y273500D01*
X214000Y279000D02*
X217000D01*
X215500Y277500D02*
Y280500D01*
X214000Y286000D02*
X217000D01*
X215500Y284500D02*
Y287500D01*
X491000Y22000D02*
X494000D01*
X492500Y20500D02*
Y23500D01*
X488500Y26500D02*
X491500D01*
X490000Y25000D02*
Y28000D01*
X501500Y202000D02*
X504500D01*
X503000Y200500D02*
Y203500D01*
X506500Y202000D02*
X509500D01*
X508000Y200500D02*
Y203500D01*
X501500Y197000D02*
X504500D01*
X503000Y195500D02*
Y198500D01*
X506500Y197000D02*
X509500D01*
X508000Y195500D02*
Y198500D01*
X506500Y192000D02*
X509500D01*
X508000Y190500D02*
Y193500D01*
X501500Y192000D02*
X504500D01*
X503000Y190500D02*
Y193500D01*
X511500Y192000D02*
X514500D01*
X513000Y190500D02*
Y193500D01*
X511500Y197000D02*
X514500D01*
X513000Y195500D02*
Y198500D01*
X511500Y202000D02*
X514500D01*
X513000Y200500D02*
Y203500D01*
X483500Y121000D02*
X486500D01*
X485000Y119500D02*
Y122500D01*
X483500Y136000D02*
X486500D01*
X485000Y134500D02*
Y137500D01*
X483500Y126000D02*
X486500D01*
X485000Y124500D02*
Y127500D01*
X483500Y131000D02*
X486500D01*
X485000Y129500D02*
Y132500D01*
X508500Y174000D02*
X511500D01*
X510000Y172500D02*
Y175500D01*
X501500Y138000D02*
X504500D01*
X503000Y136500D02*
Y139500D01*
X508500Y131000D02*
X511500D01*
X510000Y129500D02*
Y132500D01*
X501500Y131000D02*
X504500D01*
X503000Y129500D02*
Y132500D01*
X508500Y138000D02*
X511500D01*
X510000Y136500D02*
Y139500D01*
X317000Y71500D02*
X320000D01*
X318500Y70000D02*
Y73000D01*
X317000Y64500D02*
X320000D01*
X318500Y63000D02*
Y66000D01*
X317000Y78500D02*
X320000D01*
X318500Y77000D02*
Y80000D01*
X369000Y169500D02*
X372000D01*
X370500Y168000D02*
Y171000D01*
X369000Y155500D02*
X372000D01*
X370500Y154000D02*
Y157000D01*
X369000Y162500D02*
X372000D01*
X370500Y161000D02*
Y164000D01*
X557500Y207500D02*
X560500D01*
X559000Y206000D02*
Y209000D01*
X571500Y214500D02*
X574500D01*
X573000Y213000D02*
Y216000D01*
X571500Y207500D02*
X574500D01*
X573000Y206000D02*
Y209000D01*
X564500Y214500D02*
X567500D01*
X566000Y213000D02*
Y216000D01*
X564500Y207500D02*
X567500D01*
X566000Y206000D02*
Y209000D01*
X557500Y214500D02*
X560500D01*
X559000Y213000D02*
Y216000D01*
X580000Y105000D02*
X583000D01*
X581500Y103500D02*
Y106500D01*
X587000Y98000D02*
X590000D01*
X588500Y96500D02*
Y99500D01*
X580000Y98000D02*
X583000D01*
X581500Y96500D02*
Y99500D01*
X587000Y105000D02*
X590000D01*
X588500Y103500D02*
Y106500D01*
X455480Y91360D02*
X458480D01*
X456980Y89860D02*
Y92860D01*
X415500Y79500D02*
X418500D01*
X417000Y78000D02*
Y81000D01*
X434000Y63000D02*
X437000D01*
X435500Y61500D02*
Y64500D01*
X481500Y75000D02*
X484500D01*
X483000Y73500D02*
Y76500D01*
X538500Y48740D02*
X541500D01*
X540000Y47240D02*
Y50240D01*
X533500Y43500D02*
X536500D01*
X535000Y42000D02*
Y45000D01*
X541500Y22770D02*
X544500D01*
X543000Y21270D02*
Y24270D01*
X534500Y15770D02*
X537500D01*
X536000Y14270D02*
Y17270D01*
X541500Y15770D02*
X544500D01*
X543000Y14270D02*
Y17270D01*
X534500Y8770D02*
X537500D01*
X536000Y7270D02*
Y10270D01*
X541500Y8770D02*
X544500D01*
X543000Y7270D02*
Y10270D01*
X534500Y22770D02*
X537500D01*
X536000Y21270D02*
Y24270D01*
X491000Y33000D02*
X494000D01*
X492500Y31500D02*
Y34500D01*
X491000Y40000D02*
X494000D01*
X492500Y38500D02*
Y41500D01*
X402500Y30500D02*
X405500D01*
X404000Y29000D02*
Y32000D01*
X305000Y15000D02*
X308000D01*
X306500Y13500D02*
Y16500D01*
X298000Y15000D02*
X301000D01*
X299500Y13500D02*
Y16500D01*
X210660Y62840D02*
X213660D01*
X212160Y61340D02*
Y64340D01*
X175500Y64500D02*
X178500D01*
X177000Y63000D02*
Y66000D01*
X168500Y57500D02*
X171500D01*
X170000Y56000D02*
Y59000D01*
X175500Y57500D02*
X178500D01*
X177000Y56000D02*
Y59000D01*
X168500Y64500D02*
X171500D01*
X170000Y63000D02*
Y66000D01*
X135500Y67000D02*
X138500D01*
X137000Y65500D02*
Y68500D01*
X216000Y10826D02*
X219000D01*
X217500Y9326D02*
Y12326D01*
X209000Y10826D02*
X212000D01*
X210500Y9326D02*
Y12326D01*
X209000Y17826D02*
X212000D01*
X210500Y16326D02*
Y19326D01*
X209000Y24826D02*
X212000D01*
X210500Y23326D02*
Y26326D01*
X223000Y24826D02*
X226000D01*
X224500Y23326D02*
Y26326D01*
X223000Y17826D02*
X226000D01*
X224500Y16326D02*
Y19326D01*
X223000Y10826D02*
X226000D01*
X224500Y9326D02*
Y12326D01*
X216000Y17826D02*
X219000D01*
X217500Y16326D02*
Y19326D01*
X216000Y24826D02*
X219000D01*
X217500Y23326D02*
Y26326D01*
X171760Y175060D02*
X174760D01*
X173260Y173560D02*
Y176560D01*
X178760Y175060D02*
X181760D01*
X180260Y173560D02*
Y176560D01*
X171760Y168060D02*
X174760D01*
X173260Y166560D02*
Y169560D01*
X178760Y168060D02*
X181760D01*
X180260Y166560D02*
Y169560D01*
X194000Y148000D02*
X197000D01*
X195500Y146500D02*
Y149500D01*
X235500Y132000D02*
X238500D01*
X237000Y130500D02*
Y133500D01*
X561999Y157500D02*
X564999D01*
X563499Y156000D02*
Y159000D01*
X533499Y157000D02*
X536499D01*
X534999Y155500D02*
Y158500D01*
X562000Y153000D02*
X565000D01*
X563500Y151500D02*
Y154500D01*
X563499Y144500D02*
X566499D01*
X564999Y143000D02*
Y146000D01*
X47500Y152320D02*
X50500D01*
X49000Y150820D02*
Y153820D01*
X244110Y88240D02*
X247110D01*
X245610Y86740D02*
Y89740D01*
X500000Y50000D02*
X503000D01*
X501500Y48500D02*
Y51500D01*
X443500Y98500D02*
X446500D01*
X445000Y97000D02*
Y100000D01*
X293000Y87000D02*
X296000D01*
X294500Y85500D02*
Y88500D01*
X384500Y34000D02*
X387500D01*
X386000Y32500D02*
Y35500D01*
X385000Y91000D02*
X388000D01*
X386500Y89500D02*
Y92500D01*
X331500Y26000D02*
X334500D01*
X333000Y24500D02*
Y27500D01*
X396500Y49000D02*
X399500D01*
X398000Y47500D02*
Y50500D01*
X500000Y94000D02*
X503000D01*
X501500Y92500D02*
Y95500D01*
X521000Y81500D02*
X524000D01*
X522500Y80000D02*
Y83000D01*
X91500Y184500D02*
X94500D01*
X93000Y183000D02*
Y186000D01*
X91500Y179000D02*
X94500D01*
X93000Y177500D02*
Y180500D01*
X91500Y173500D02*
X94500D01*
X93000Y172000D02*
Y175000D01*
X414000Y206500D02*
X417000D01*
X415500Y205000D02*
Y208000D01*
X546500Y175500D02*
X549500D01*
X548000Y174000D02*
Y177000D01*
X540000Y175500D02*
X543000D01*
X541500Y174000D02*
Y177000D01*
X525390Y140890D02*
X528390D01*
X526890Y139390D02*
Y142390D01*
X553000Y175500D02*
X556000D01*
X554500Y174000D02*
Y177000D01*
X553000Y181500D02*
X556000D01*
X554500Y180000D02*
Y183000D01*
X546500Y181500D02*
X549500D01*
X548000Y180000D02*
Y183000D01*
X540000Y181500D02*
X543000D01*
X541500Y180000D02*
Y183000D01*
X567500Y169250D02*
X570500D01*
X569000Y167750D02*
Y170750D01*
X540000Y128500D02*
X543000D01*
X541500Y127000D02*
Y130000D01*
X540000Y134500D02*
X543000D01*
X541500Y133000D02*
Y136000D01*
X546500Y134500D02*
X549500D01*
X548000Y133000D02*
Y136000D01*
X546500Y128500D02*
X549500D01*
X548000Y127000D02*
Y130000D01*
X553000Y128500D02*
X556000D01*
X554500Y127000D02*
Y130000D01*
X553000Y134500D02*
X556000D01*
X554500Y133000D02*
Y136000D01*
X55650Y152320D02*
X58650D01*
X57150Y150820D02*
Y153820D01*
X190770Y47600D02*
X193770D01*
X192270Y46100D02*
Y49100D01*
X204740Y47600D02*
X207740D01*
X206240Y46100D02*
Y49100D01*
X157730Y157340D02*
X160730D01*
X159230Y155840D02*
Y158840D01*
X207280Y88240D02*
X210280D01*
X208780Y86740D02*
Y89740D01*
X434110Y173910D02*
X437110D01*
X435610Y172410D02*
Y175410D01*
X505230Y121840D02*
X508230D01*
X506730Y120340D02*
Y123340D01*
X505230Y116760D02*
X508230D01*
X506730Y115260D02*
Y118260D01*
X86000Y125500D02*
X89000D01*
X87500Y124000D02*
Y127000D01*
X86000Y131000D02*
X89000D01*
X87500Y129500D02*
Y132500D01*
X86000Y136500D02*
X89000D01*
X87500Y135000D02*
Y138000D01*
X91500Y136500D02*
X94500D01*
X93000Y135000D02*
Y138000D01*
X91500Y131000D02*
X94500D01*
X93000Y129500D02*
Y132500D01*
X91500Y125500D02*
X94500D01*
X93000Y124000D02*
Y127000D01*
X86000Y173500D02*
X89000D01*
X87500Y172000D02*
Y175000D01*
X86000Y179000D02*
X89000D01*
X87500Y177500D02*
Y180500D01*
X86000Y184500D02*
X89000D01*
X87500Y183000D02*
Y186000D01*
X506500Y110500D02*
X509500D01*
X508000Y109000D02*
Y112000D01*
X286000Y220500D02*
X289000D01*
X287500Y219000D02*
Y222000D01*
X203000Y95000D02*
X206000D01*
X204500Y93500D02*
Y96500D01*
X326000Y179000D02*
X329000D01*
X327500Y177500D02*
Y180500D01*
X434500Y272500D02*
X437500D01*
X436000Y271000D02*
Y274000D01*
X441500Y279500D02*
X444500D01*
X443000Y278000D02*
Y281000D01*
X434500Y279500D02*
X437500D01*
X436000Y278000D02*
Y281000D01*
X441500Y272500D02*
X444500D01*
X443000Y271000D02*
Y274000D01*
X308500Y92500D02*
X311500D01*
X310000Y91000D02*
Y94000D01*
X29500Y146500D02*
X32500D01*
X31000Y145000D02*
Y148000D01*
X29500Y161500D02*
X32500D01*
X31000Y160000D02*
Y163000D01*
X29500Y151500D02*
X32500D01*
X31000Y150000D02*
Y153000D01*
X29500Y156500D02*
X32500D01*
X31000Y155000D02*
Y158000D01*
X168000Y14000D02*
X171000D01*
X169500Y12500D02*
Y15500D01*
X168000Y7000D02*
X171000D01*
X169500Y5500D02*
Y8500D01*
X175000Y7000D02*
X178000D01*
X176500Y5500D02*
Y8500D01*
X175000Y14000D02*
X178000D01*
X176500Y12500D02*
Y15500D01*
X28500Y297500D02*
X31500D01*
X30000Y296000D02*
Y299000D01*
X16126Y292374D02*
X19126D01*
X17626Y290874D02*
Y293874D01*
X11000Y280000D02*
X14000D01*
X12500Y278500D02*
Y281500D01*
X16126Y267626D02*
X19126D01*
X17626Y266126D02*
Y269126D01*
X28500Y262500D02*
X31500D01*
X30000Y261000D02*
Y264000D01*
X40874Y267626D02*
X43874D01*
X42374Y266126D02*
Y269126D01*
X46000Y280000D02*
X49000D01*
X47500Y278500D02*
Y281500D01*
X40874Y292374D02*
X43874D01*
X42374Y290874D02*
Y293874D01*
X568500Y297500D02*
X571500D01*
X570000Y296000D02*
Y299000D01*
X556126Y292374D02*
X559126D01*
X557626Y290874D02*
Y293874D01*
X551000Y280000D02*
X554000D01*
X552500Y278500D02*
Y281500D01*
X556126Y267626D02*
X559126D01*
X557626Y266126D02*
Y269126D01*
X568500Y262500D02*
X571500D01*
X570000Y261000D02*
Y264000D01*
X580874Y267626D02*
X583874D01*
X582374Y266126D02*
Y269126D01*
X586000Y280000D02*
X589000D01*
X587500Y278500D02*
Y281500D01*
X580874Y292374D02*
X583874D01*
X582374Y290874D02*
Y293874D01*
X568500Y47500D02*
X571500D01*
X570000Y46000D02*
Y49000D01*
X556126Y42374D02*
X559126D01*
X557626Y40874D02*
Y43874D01*
X551000Y30000D02*
X554000D01*
X552500Y28500D02*
Y31500D01*
X556126Y17626D02*
X559126D01*
X557626Y16126D02*
Y19126D01*
X568500Y12500D02*
X571500D01*
X570000Y11000D02*
Y14000D01*
X580874Y17626D02*
X583874D01*
X582374Y16126D02*
Y19126D01*
X586000Y30000D02*
X589000D01*
X587500Y28500D02*
Y31500D01*
X580874Y42374D02*
X583874D01*
X582374Y40874D02*
Y43874D01*
X28500Y47500D02*
X31500D01*
X30000Y46000D02*
Y49000D01*
X16126Y42374D02*
X19126D01*
X17626Y40874D02*
Y43874D01*
X11000Y30000D02*
X14000D01*
X12500Y28500D02*
Y31500D01*
X16126Y17626D02*
X19126D01*
X17626Y16126D02*
Y19126D01*
X28500Y12500D02*
X31500D01*
X30000Y11000D02*
Y14000D01*
X40874Y17626D02*
X43874D01*
X42374Y16126D02*
Y19126D01*
X46000Y30000D02*
X49000D01*
X47500Y28500D02*
Y31500D01*
X40874Y42374D02*
X43874D01*
X42374Y40874D02*
Y43874D01*
M02*
